<?xml version="1.0" standalone="no"?>
<!DOCTYPE svg PUBLIC "-//W3C//DTD SVG 1.1//EN" "http://www.w3.org/Graphics/SVG/1.1/DTD/svg11.dtd" >
<svg xmlns="http://www.w3.org/2000/svg" xmlns:xlink="http://www.w3.org/1999/xlink" version="1.1">
<metadata>
Created by FontForge 20150824 at Tue Apr 26 22:13:59 2016
 By Everything Fonts
</metadata>
<defs>
<font id="Material-Design-Icons" horiz-adv-x="1024" >
  <font-face 
    font-family="Material-Design-Icons"
    font-weight="400"
    font-stretch="normal"
    units-per-em="1024"
    panose-1="0 0 0 0 0 0 0 0 0 0"
    ascent="960"
    descent="-64"
    bbox="0 -85 1092 939"
    underline-thickness="0"
    underline-position="0"
    unicode-range="U+0001-FFFD"
  />
<missing-glyph horiz-adv-x="0" 
 />
    <glyph glyph-name=".notdef" unicode="&#xfffd;" horiz-adv-x="0" 
 />
    <glyph glyph-name="glyph1" horiz-adv-x="0" 
d="M0 0v0v0v0z" />
    <glyph glyph-name="glyph1" horiz-adv-x="0" 
d="M0 0v0v0v0z" />
    <glyph glyph-name="uni0001" horiz-adv-x="0" 
d="M0 0v0v0v0z" />
    <glyph glyph-name="space" unicode=" " horiz-adv-x="512" 
d="M0 0v0v0v0z" />
    <glyph glyph-name="uniE600" unicode="&#xe600;" 
d="M321 22q-52 25 -96.5 62t-77.5 83.5t-54 101.5t-27 115h-64q8 -99 51 -184.5t111.5 -149t157.5 -99.5t190 -36l28 1l-162 163l-57 -57v0zM359 300q-6 0 -12 1t-10 3q-5 2 -9.5 4.5t-7.5 5.5q-4 3 -7 7t-5 9q-1 4 -2 9t-1 11h-56q0 -12 2.5 -22t6.5 -19q5 -8 11 -15.5
t13 -13.5q8 -6 16.5 -10.5t18.5 -7.5t20 -4.5t21 -1.5q12 0 23 1.5t21 4.5q10 4 19 8.5t16 10.5q8 6 14 14t10 17t6 19.5t2 21.5q0 6 -0.5 12t-2.5 12q-1 6 -3.5 11.5t-5.5 10.5q-4 5 -8 9.5t-10 8.5q-5 4 -11.5 7.5t-14.5 6.5q7 2 12.5 5.5t10.5 8.5q4 4 8 8.5t7 9.5
q4 4 6 9l4 10l2 10t1 11q0 11 -2 21.5t-6 19.5t-9.5 16t-12.5 13q-6 6 -14.5 10.5t-18.5 7.5q-9 3 -20 4.5t-23 1.5t-22.5 -1.5t-20.5 -4.5q-9 -4 -17.5 -9t-15.5 -11t-12.5 -13t-9.5 -15q-4 -9 -6 -18t-2 -19h56q0 6 1 10.5t2 9.5q2 4 5 7.5t6 6.5q4 3 8 5.5t8 4.5l10 2
t11 1q13 0 22.5 -3.5t15.5 -9.5q6 -7 9 -16t3 -21q0 -6 -1 -11l-2 -10q-2 -5 -4.5 -8.5t-6.5 -7.5q-3 -3 -7.5 -5.5t-9.5 -4.5q-6 -2 -12 -3t-13 -1h-33v-44h33q7 0 13.5 -0.5t11.5 -2.5q6 -1 11 -3.5t9 -5.5q3 -4 6.5 -8t5.5 -10q2 -5 3 -11t1 -13q0 -13 -3.5 -23
t-11.5 -17q-7 -7 -17 -10.5t-23 -3.5v0zM724 553q-11 11 -23 19t-26 14t-29.5 8.5t-32.5 2.5h-101v-341h98q18 0 34 3t31 9q14 5 26.5 13t22.5 19t18 23.5t14 27.5q5 15 8 31.5t3 35.5v17q0 18 -3 35t-8 32q-6 15 -14 27.5t-18 23.5v0zM707 418q0 -13 -1.5 -25t-4.5 -23
t-7.5 -20t-10.5 -16q-6 -8 -14 -13.5t-17 -9.5t-19.5 -6t-22.5 -2h-39v247h42q23 0 40.5 -7.5t29.5 -22.5t18 -36t6 -49v-17v0zM512 939l-28 -2l162 -162l57 57q52 -25 96.5 -62t77.5 -84t54 -101.5t26 -114.5h64q-8 98 -50.5 183.5t-111 149t-157.5 100t-190 36.5v0z" />
    <glyph glyph-name="uniE601" unicode="&#xe601;" 
d="M512 853q35 0 60 -25t25 -60t-25 -60t-60 -25t-60 25t-25 60t25 60t60 25v0zM896 555h-256v-555h-85v256h-86v-256h-85v555h-256v85h768v-85v0z" />
    <glyph glyph-name="uniE602" unicode="&#xe602;" 
d="M896 171v-43q0 -35 -25 -60t-60 -25h-598q-35 0 -60 25t-25 60v597q0 36 25 61t60 25h598q35 0 60 -25t25 -61v-42h-384q-36 0 -60.5 -25t-24.5 -61v-341q0 -35 24.5 -60t60.5 -25h384v0zM512 256h427v341h-427v-341v0zM683 363q-27 0 -45.5 18.5t-18.5 45.5
q0 26 18.5 45t45.5 19q26 0 45 -19t19 -45q0 -27 -19 -45.5t-45 -18.5v0z" />
    <glyph glyph-name="uniE603" unicode="&#xe603;" 
d="M171 512v-299h128v299h-128v0zM427 512v-299h128v299h-128v0zM85 0h811v128h-811v-128v0zM683 512v-299h128v299h-128v0zM491 896l-406 -213v-86h811v86l-405 213v0z" />
    <glyph glyph-name="uniE604" unicode="&#xe604;" 
d="M128 725v-597q0 -35 25 -60t60 -25h598q35 0 60 25t25 60v597q0 36 -25 61t-60 25h-598q-35 0 -60 -25t-25 -61v0zM640 555q0 -53 -37.5 -90.5t-90.5 -37.5t-90.5 37.5t-37.5 90.5t37.5 90.5t90.5 37.5t90.5 -37.5t37.5 -90.5v0zM256 213q0 32 28 57t68 41.5t84 25.5
t76 9t76 -9t84 -25.5t68 -41.5t28 -57v-42h-512v42v0z" />
    <glyph glyph-name="uniE605" unicode="&#xe605;" 
d="M576 363q0 -26 -18.5 -45t-45.5 -19t-45.5 19t-18.5 45q0 27 18.5 45.5t45.5 18.5t45.5 -18.5t18.5 -45.5v0zM512 853q-88 0 -166 -33.5t-136 -91.5t-91.5 -135.5t-33.5 -165.5q0 -89 33.5 -166.5t91.5 -135.5t136 -91.5t166 -33.5t166 33.5t136 91.5t91.5 135.5
t33.5 166.5q0 88 -33.5 165.5t-91.5 135.5t-136 91.5t-166 33.5v0zM512 747q40 0 68 -28.5t28 -67.5q0 -40 -28 -68t-68 -28t-68 28t-28 68q0 39 28 67.5t68 28.5v0zM725 296v-107q-14 -13 -30 -24t-34 -20v29q0 11 -5 20.5t-14 18.5q-21 20 -57 31.5t-73 11.5q-31 0 -61 -8
t-52 -23l-7 -5l-9 -7q25 -15 52 -23.5t56 -11.5l57 -6q12 -2 20 -11t8 -21q0 -10 -4.5 -17t-12.5 -12q-9 -4 -20 -3.5t-21 0.5h-22t-22 2q-16 2 -31.5 5.5t-30.5 8.5q-16 5 -31 12t-29 15q-7 4 -14 8.5t-14 9.5l-13 11q-2 0 -7 4t-5 5v183q0 51 68.5 85t144.5 34t144.5 -34
t68.5 -85v-76v0z" />
    <glyph glyph-name="uniE606" unicode="&#xe606;" 
d="M512 853q-88 0 -166 -33.5t-136 -91.5t-91.5 -135.5t-33.5 -165.5q0 -89 33.5 -166.5t91.5 -135.5t136 -91.5t166 -33.5t166 33.5t136 91.5t91.5 135.5t33.5 166.5q0 88 -33.5 165.5t-91.5 135.5t-136 91.5t-166 33.5v0zM512 725q53 0 90.5 -37.5t37.5 -90.5t-37.5 -90.5
t-90.5 -37.5t-90.5 37.5t-37.5 90.5t37.5 90.5t90.5 37.5v0zM512 119q-80 0 -147.5 38t-108.5 100q0 32 28.5 56.5t68 41t83.5 25t76 8.5t75.5 -8.5t83.5 -25t68.5 -41t28.5 -56.5q-41 -62 -108.5 -100t-147.5 -38v0z" />
    <glyph glyph-name="uniE607" unicode="&#xe607;" 
d="M469 555h86v128h128v85h-128v128h-86v-128h-128v-85h128v-128v0zM299 171q-36 0 -60.5 -25t-24.5 -61q0 -35 24.5 -60t60.5 -25q35 0 60 25t25 60q0 36 -25 61t-60 25v0zM725 171q-35 0 -60 -25t-25 -61q0 -35 25 -60t60 -25q36 0 61 25t25 60q0 36 -25 61t-61 25v0z
M306 309l1 5l39 70h317q24 0 44 12t31 32l165 299l-74 41h-1l-47 -85l-118 -214h-299l-6 12l-95 202l-41 85l-40 85h-139v-85h85l154 -324l-58 -104q-5 -9 -8 -19.5t-3 -21.5q0 -36 25 -61t61 -25h512v86h-494q-5 0 -8 3t-3 7v0z" />
    <glyph glyph-name="uniE608" unicode="&#xe608;" 
d="M336 794l-54 65l-197 -164l55 -65l196 164v0zM939 695l-197 164l-55 -65l197 -165l55 66v0zM512 768q-80 0 -149.5 -30t-122 -82.5t-82.5 -122t-30 -149.5t30 -149.5t82 -122t122 -82.5t150 -30t149.5 30t122 82.5t82.5 122t30 149.5t-30 149.5t-82.5 122t-122 82.5
t-149.5 30v0zM512 85q-62 0 -116.5 23.5t-95 64t-64 95t-23.5 116.5t23.5 116.5t64 95t95 64t116.5 23.5t116.5 -23.5t95 -64t64 -95t23.5 -116.5t-23.5 -116.5t-64 -95t-95 -64t-116.5 -23.5v0zM555 555h-86v-128h-128v-86h128v-128h86v128h128v86h-128v128v0z" />
    <glyph glyph-name="uniE609" unicode="&#xe609;" 
d="M512 683q62 0 116.5 -23.5t95 -64t64 -95t23.5 -116.5q0 -27 -5 -52.5t-14 -49.5l65 -65q19 38 29 80t10 87q0 80 -30 149.5t-82.5 122t-122 82.5t-149.5 30q-45 0 -87 -10t-80 -29l65 -65q24 9 49.5 14t52.5 5v0zM939 695l-197 164l-55 -65l197 -165l55 66v0zM125 841
l-55 -55l57 -56l-47 -40l60 -61l48 40l34 -34q-44 -50 -69 -114.5t-25 -136.5q0 -80 30 -149.5t82 -122t122 -82.5t150 -30q72 0 136.5 25t114.5 69l94 -94l54 54l-786 787v0zM703 154q-39 -32 -88 -50.5t-103 -18.5q-62 0 -116.5 23.5t-95 64t-64 95t-23.5 116.5
q0 54 18.5 103t50.5 88l421 -421v0zM342 799l-60 60l-37 -30l60 -61l37 31v0z" />
    <glyph glyph-name="uniE60A" unicode="&#xe60a;" 
d="M939 695l-197 164l-55 -65l197 -165l55 66v0zM336 794l-54 65l-197 -164l55 -65l196 164v0zM512 768q-80 0 -149.5 -30t-122 -82.5t-82.5 -122t-30 -149.5t30 -149.5t82 -122t122 -82.5t150 -30t149.5 30t122 82.5t82.5 122t30 149.5t-30 149.5t-82.5 122t-122 82.5
t-149.5 30v0zM512 85q-62 0 -116.5 23.5t-95 64t-64 95t-23.5 116.5t23.5 116.5t64 95t95 64t116.5 23.5t116.5 -23.5t95 -64t64 -95t23.5 -116.5t-23.5 -116.5t-64 -95t-95 -64t-116.5 -23.5v0zM450 319l-91 91l-45 -46l135 -135l256 256l-45 45l-210 -211v0z" />
    <glyph glyph-name="uniE60B" unicode="&#xe60b;" 
d="M939 695l-197 164l-55 -65l197 -165l55 66v0zM336 794l-54 65l-197 -164l55 -65l196 164v0zM533 597h-64v-256l203 -121l32 52l-171 101v224v0zM512 768q-80 0 -149.5 -30t-122 -82.5t-82.5 -122t-30 -149.5t30 -149.5t82 -122t122 -82.5t150 -30t149.5 30t122 82.5
t82.5 122t30 149.5t-30 149.5t-82.5 122t-122 82.5t-149.5 30v0zM512 85q-62 0 -116.5 23.5t-95 64t-64 95t-23.5 116.5t23.5 116.5t64 95t95 64t116.5 23.5t116.5 -23.5t95 -64t64 -95t23.5 -116.5t-23.5 -116.5t-64 -95t-95 -64t-116.5 -23.5v0z" />
    <glyph glyph-name="uniE60C" unicode="&#xe60c;" 
d="M256 171q0 -18 12.5 -30.5t30.5 -12.5h42v-149q0 -27 19 -45.5t45 -18.5q27 0 45.5 18.5t18.5 45.5v149h86v-149q0 -27 18.5 -45.5t45.5 -18.5q26 0 45 18.5t19 45.5v149h42q18 0 30.5 12.5t12.5 30.5v426h-512v-426v0zM149 597q-26 0 -45 -18.5t-19 -45.5v-298
q0 -27 19 -45.5t45 -18.5q27 0 45.5 18.5t18.5 45.5v298q0 27 -18.5 45.5t-45.5 18.5v0zM875 597q-27 0 -45.5 -18.5t-18.5 -45.5v-298q0 -27 18.5 -45.5t45.5 -18.5q26 0 45 18.5t19 45.5v298q0 27 -19 45.5t-45 18.5v0zM663 847l55 55q6 6 6 15t-6 15q-6 7 -15 7t-15 -7
l-63 -63q-26 13 -54.5 20t-58.5 7q-31 0 -59.5 -7t-53.5 -20l-64 63q-6 7 -15 7t-15 -7q-7 -6 -7 -15t7 -15l56 -56q-48 -35 -76.5 -88.5t-28.5 -117.5h512q0 64 -28.5 118t-76.5 89v0zM427 725h-43v43h43v-43v0zM640 725h-43v43h43v-43v0z" />
    <glyph glyph-name="uniE60D" unicode="&#xe60d;" 
d="M853 853h-682q-36 0 -60.5 -25t-24.5 -60l-1 -768l171 171h597q36 0 61 25t25 60v512q0 35 -25 60t-61 25v0zM555 469h-86v256h86v-256v0zM555 299h-86v85h86v-85v0z" />
    <glyph glyph-name="uniE60E" unicode="&#xe60e;" 
d="M811 427h-86v-128h-128v-86h214v214v0zM299 555h128v85h-214v-213h86v128v0zM896 811h-768q-35 0 -60 -25t-25 -61v-597q0 -35 25 -60t60 -25h768q35 0 60 25t25 60v597q0 36 -25 61t-60 25v0zM896 128h-768v598h768v-598v0z" />
    <glyph glyph-name="uniE60F" unicode="&#xe60f;" 
d="M811 811h-598q-35 0 -60 -25t-25 -61v-597q0 -35 25 -60t60 -25h598q35 0 60 25t25 60v597q0 36 -25 61t-60 25v0zM384 213h-85v299h85v-299v0zM555 213h-86v427h86v-427v0zM725 213h-85v171h85v-171v0z" />
    <glyph glyph-name="uniE610" unicode="&#xe610;" 
d="M811 811h-179q-13 37 -45.5 61t-74.5 24t-74.5 -24t-45.5 -61h-179q-35 0 -60 -25t-25 -61v-597q0 -35 25 -60t60 -25h598q35 0 60 25t25 60v597q0 36 -25 61t-60 25v0zM512 811q18 0 30.5 -12.5t12.5 -30.5t-12.5 -30.5t-30.5 -12.5t-30.5 12.5t-12.5 30.5t12.5 30.5
t30.5 12.5v0zM512 640q53 0 90.5 -37.5t37.5 -90.5t-37.5 -90.5t-90.5 -37.5t-90.5 37.5t-37.5 90.5t37.5 90.5t90.5 37.5v0zM768 128h-512v60q0 32 28 56.5t68 41.5t84 25.5t76 8.5t76 -8.5t84 -25.5t68 -41.5t28 -56.5v-60v0z" />
    <glyph glyph-name="uniE611" unicode="&#xe611;" 
d="M811 811h-179q-13 37 -45.5 61t-74.5 24t-74.5 -24t-45.5 -61h-179q-35 0 -60 -25t-25 -61v-597q0 -35 25 -60t60 -25h598q35 0 60 25t25 60v597q0 36 -25 61t-60 25v0zM555 171h-86v85h86v-85v0zM555 341h-86v256h86v-256v0zM512 725q-18 0 -30.5 12.5t-12.5 30.5
t12.5 30.5t30.5 12.5t30.5 -12.5t12.5 -30.5t-12.5 -30.5t-30.5 -12.5v0z" />
    <glyph glyph-name="uniE612" unicode="&#xe612;" 
d="M811 811h-179q-13 37 -45.5 61t-74.5 24t-74.5 -24t-45.5 -61h-179q-35 0 -60 -25t-25 -61v-597q0 -35 25 -60t60 -25h598q35 0 60 25t25 60v597q0 36 -25 61t-60 25v0zM512 811q18 0 30.5 -12.5t12.5 -30.5t-12.5 -30.5t-30.5 -12.5t-30.5 12.5t-12.5 30.5t12.5 30.5
t30.5 12.5v0zM683 299h-171v-128l-213 213l213 213v-128h171v-170v0z" />
    <glyph glyph-name="uniE613" unicode="&#xe613;" 
d="M811 811h-179q-13 37 -45.5 61t-74.5 24t-74.5 -24t-45.5 -61h-179q-35 0 -60 -25t-25 -61v-597q0 -35 25 -60t60 -25h598q35 0 60 25t25 60v597q0 36 -25 61t-60 25v0zM512 811q18 0 30.5 -12.5t12.5 -30.5t-12.5 -30.5t-30.5 -12.5t-30.5 12.5t-12.5 30.5t12.5 30.5
t30.5 12.5v0zM512 171l-213 213h128v171h170v-171h128l-213 -213v0z" />
    <glyph glyph-name="uniE614" unicode="&#xe614;" 
d="M811 811h-179q-13 37 -45.5 61t-74.5 24t-74.5 -24t-45.5 -61h-179q-35 0 -60 -25t-25 -61v-597q0 -35 25 -60t60 -25h598q35 0 60 25t25 60v597q0 36 -25 61t-60 25v0zM512 811q18 0 30.5 -12.5t12.5 -30.5t-12.5 -30.5t-30.5 -12.5t-30.5 12.5t-12.5 30.5t12.5 30.5
t30.5 12.5v0zM427 213l-171 171l60 60l111 -110l281 281l60 -60l-341 -342v0z" />
    <glyph glyph-name="uniE615" unicode="&#xe615;" 
d="M811 811h-179q-13 37 -45.5 61t-74.5 24t-74.5 -24t-45.5 -61h-179q-35 0 -60 -25t-25 -61v-597q0 -35 25 -60t60 -25h598q35 0 60 25t25 60v597q0 36 -25 61t-60 25v0zM512 811q18 0 30.5 -12.5t12.5 -30.5t-12.5 -30.5t-30.5 -12.5t-30.5 12.5t-12.5 30.5t12.5 30.5
t30.5 12.5v0zM597 213h-298v86h298v-86v0zM725 384h-426v85h426v-85v0zM725 555h-426v85h426v-85v0z" />
    <glyph glyph-name="uniE616" unicode="&#xe616;" 
d="M512 683v-128l171 170l-171 171v-128q-71 0 -133 -27t-108.5 -73t-73 -108.5t-26.5 -132.5q0 -51 14 -97t39 -85l62 62q-15 27 -22.5 57t-7.5 63q0 53 20 99.5t55 81t81.5 55t99.5 20.5v0zM800 608l-62 -62q14 -27 22 -57t8 -62q0 -53 -20 -100t-55 -81.5t-81.5 -54.5
t-99.5 -20v128l-171 -171l171 -171v128q71 0 133 27t108.5 73.5t73 108.5t26.5 133q0 50 -14 96t-39 85v0z" />
    <glyph glyph-name="uniE617" unicode="&#xe617;" 
d="M826 510q-11 55 -39.5 102.5t-70 82t-94 54t-110.5 19.5q-46 0 -88.5 -12.5t-79.5 -35.5t-66.5 -54.5t-49.5 -69.5q-48 -5 -89.5 -27t-72.5 -56t-48.5 -78t-17.5 -94q0 -53 20 -99.5t55 -81t81.5 -55t99.5 -20.5h555q44 0 83 17t67.5 46t45.5 68t17 83q0 42 -15.5 79
t-42 65.5t-63 46t-77.5 20.5v0zM597 384v-171h-170v171h-128l213 213l213 -213h-128v0z" />
    <glyph glyph-name="uniE618" unicode="&#xe618;" 
d="M768 853h-512q-35 0 -60 -25t-25 -60v-683q0 -35 25 -60t60 -25h512q35 0 60 25t25 60v683q0 35 -25 60t-60 25v0zM256 768h213v-341l-106 64l-107 -64v341v0z" />
    <glyph glyph-name="uniE619" unicode="&#xe619;" 
d="M725 811h-426q-36 0 -60.5 -25t-24.5 -61l-1 -682l299 128l299 -128v682q0 36 -25 61t-61 25v0zM725 171l-213 93l-213 -93v554h426v-554v0z" />
    <glyph glyph-name="uniE61A" unicode="&#xe61a;" 
d="M725 811h-426q-36 0 -60.5 -25t-24.5 -61l-1 -682l299 128l299 -128v682q0 36 -25 61t-61 25v0z" />
    <glyph glyph-name="uniE61B" unicode="&#xe61b;" 
d="M853 597h-120q-14 25 -33.5 46.5t-43.5 37.5l69 70l-60 60l-92 -93q-15 4 -30 5.5t-31 1.5t-31 -1.5t-29 -5.5l-93 93l-60 -60l69 -70q-24 -16 -43.5 -37.5t-33.5 -46.5h-120v-85h89q-2 -11 -3 -21.5t-1 -21.5v-42h-85v-86h85v-42q0 -11 1 -21.5t3 -21.5h-89v-85h120
q33 -58 91.5 -93t129.5 -35t129.5 35t91.5 93h120v85h-89q2 11 3 21.5t1 21.5v42h85v86h-85v42q0 11 -1 21.5t-3 21.5h89v85v0zM597 256h-170v85h170v-85v0zM597 427h-170v85h170v-85v0z" />
    <glyph glyph-name="uniE61C" unicode="&#xe61c;" 
d="M811 597l-171 -170h128q0 -53 -20 -100t-55 -81.5t-81.5 -54.5t-99.5 -20q-32 0 -62.5 7.5t-56.5 22.5l-63 -63q40 -25 86 -39t96 -14q71 0 133 27t108.5 73.5t73 108.5t26.5 133h128l-170 170v0zM256 427q0 53 20 99.5t55 81t81.5 55t99.5 20.5q32 0 62.5 -8t56.5 -22
l63 62q-40 25 -86 39t-96 14q-71 0 -133 -27t-108.5 -73t-73 -108.5t-26.5 -132.5h-128l170 -171l171 171h-128v0z" />
    <glyph glyph-name="uniE61D" unicode="&#xe61d;" 
d="M512 853q-88 0 -166 -33.5t-136 -91.5t-91.5 -135.5t-33.5 -165.5q0 -89 33.5 -166.5t91.5 -135.5t136 -91.5t166 -33.5t166 33.5t136 91.5t91.5 135.5t33.5 166.5q0 88 -33.5 165.5t-91.5 135.5t-136 91.5t-166 33.5v0zM427 213l-214 214l60 60l154 -153l324 324l60 -61
l-384 -384v0z" />
    <glyph glyph-name="uniE61E" unicode="&#xe61e;" 
d="M768 853h-512q-35 0 -60 -25t-25 -60v-683q0 -35 25 -60t60 -25h512q35 0 60 25t25 60v683q0 35 -25 60t-60 25v0zM256 768h213v-341l-106 64l-107 -64v341v0z" />
    <glyph glyph-name="uniE61F" unicode="&#xe61f;" 
d="M853 768h-682q-36 0 -60.5 -25t-24.5 -60l-1 -512q0 -36 25 -61t61 -25h682q36 0 61 25t25 61v512q0 35 -25 60t-61 25v0zM853 171h-682v256h682v-256v0zM853 597h-682v86h682v-86v0z" />
    <glyph glyph-name="uniE620" unicode="&#xe620;" 
d="M128 384h341v427h-341v-427v0zM128 43h341v256h-341v-256v0zM555 43h341v426h-341v-426v0zM555 811v-256h341v256h-341v0z" />
    <glyph glyph-name="uniE621" unicode="&#xe621;" 
d="M256 128q0 -35 25 -60t60 -25h342q35 0 60 25t25 60v512h-512v-512v0zM811 768h-150l-42 43h-214l-42 -43h-150v-85h598v85v0z" />
    <glyph glyph-name="uniE622" unicode="&#xe622;" 
d="M597 853h-341q-35 0 -60 -25t-25 -60v-683q0 -35 24.5 -60t60.5 -25h512q35 0 60 25t25 60v512l-256 256v0zM683 171h-342v85h342v-85v0zM683 341h-342v86h342v-86v0zM555 555v234l234 -234h-234v0z" />
    <glyph glyph-name="uniE623" unicode="&#xe623;" 
d="M853 384h-682q-18 0 -30.5 -12.5t-12.5 -30.5v-256q0 -17 12.5 -29.5t30.5 -12.5h682q18 0 30.5 12.5t12.5 29.5v256q0 18 -12.5 30.5t-30.5 12.5v0zM299 128q-36 0 -61 25t-25 60q0 36 25 61t61 25q35 0 60 -25t25 -61q0 -35 -25 -60t-60 -25v0zM853 811h-682
q-18 0 -30.5 -12.5t-12.5 -30.5v-256q0 -18 12.5 -30.5t30.5 -12.5h682q18 0 30.5 12.5t12.5 30.5v256q0 18 -12.5 30.5t-30.5 12.5v0zM299 555q-36 0 -61 25t-25 60t25 60t61 25q35 0 60 -25t25 -60t-25 -60t-60 -25v0z" />
    <glyph glyph-name="uniE624" unicode="&#xe624;" 
d="M768 640l-60 60l-271 -270l60 -61l271 271v0zM949 700l-452 -451l-178 178l-60 -60l238 -239l512 512l-60 60v0zM17 367l239 -239l60 60l-238 239l-61 -60v0z" />
    <glyph glyph-name="uniE625" unicode="&#xe625;" 
d="M384 249l-178 178l-61 -60l239 -239l512 512l-60 60z" />
    <glyph glyph-name="uniE626" unicode="&#xe626;" 
d="M725 427h-213v-214h213v214v0zM683 896v-85h-342v85h-85v-85h-43q-35 0 -60 -25t-25 -61v-597q0 -35 25 -60t60 -25h598q35 0 60 25t25 60v597q0 36 -25 61t-60 25h-43v85h-85v0zM811 128h-598v469h598v-469v0z" />
    <glyph glyph-name="uniE627" unicode="&#xe627;" 
d="M431 273l60 -60l213 214l-213 213l-60 -60l110 -111h-413v-85h413l-110 -111v0zM811 811h-598q-35 0 -60 -25t-25 -61v-170h85v170h598v-597h-598v171h-85v-171q0 -35 25 -60t60 -25h598q35 0 60 25t25 60v597q0 36 -25 61t-60 25v0z" />
    <glyph glyph-name="uniE628" unicode="&#xe628;" 
d="M512 474q-20 0 -33.5 -14t-13.5 -33q0 -20 13.5 -33.5t33.5 -13.5t33.5 13.5t13.5 33.5q0 19 -13.5 33t-33.5 14v0zM512 853q-88 0 -166 -33.5t-136 -91.5t-91.5 -135.5t-33.5 -165.5q0 -89 33.5 -166.5t91.5 -135.5t136 -91.5t166 -33.5t166 33.5t136 91.5t91.5 135.5
t33.5 166.5q0 88 -33.5 165.5t-91.5 135.5t-136 91.5t-166 33.5v0zM605 333l-349 -162l163 349l349 163l-163 -350v0z" />
    <glyph glyph-name="uniE629" unicode="&#xe629;" 
d="M875 469h-64v171q0 35 -25 60t-61 25h-170v64q0 44 -31.5 75.5t-75.5 31.5t-75.5 -31.5t-31.5 -75.5v-64h-170q-36 0 -60.5 -25t-24.5 -60v-162h63q48 0 82 -34t34 -81q0 -48 -34 -82t-82 -34h-64v-162q0 -35 25 -60t61 -25h162v64q0 48 33.5 81.5t81.5 33.5t81.5 -33.5
t33.5 -81.5v-64h162q36 0 61 25t25 60v171h64q44 0 75 31.5t31 75.5t-31 75t-75 31v0z" />
    <glyph glyph-name="uniE62A" unicode="&#xe62a;" 
d="M627 209q-24 -18 -53.5 -28t-61.5 -10t-61.5 10t-53.5 28q-7 6 -15.5 4.5t-14.5 -8.5q-5 -7 -4 -15.5t8 -14.5q29 -23 65.5 -35t75.5 -12t75.5 12t65.5 35q7 5 8.5 14t-4.5 16q-5 7 -14 8t-16 -4v0zM405 405q0 -17 -12.5 -29.5t-29.5 -12.5q-18 0 -30.5 12.5t-12.5 29.5
q0 18 12.5 30.5t30.5 12.5q17 0 29.5 -12.5t12.5 -30.5v0zM512 939q-106 0 -199.5 -40.5t-163 -110t-109.5 -162.5t-40 -199t40 -199.5t109.5 -163t163 -109.5t199.5 -40t199.5 40t163 109.5t109.5 163t40 199.5t-40 199t-109.5 162.5t-163 110t-199.5 40.5v0zM852 306
q-18 -59 -51 -110t-78 -87.5t-99.5 -57t-114.5 -20.5q-61 0 -115.5 20.5t-99.5 57.5t-78 87.5t-50 110.5q-39 3 -65 33.5t-26 73.5q0 41 24 71t60 36q67 47 116 106.5t58 108.5v1q22 -42 70.5 -82t115.5 -70.5t148.5 -48t170.5 -15.5l13 1q41 0 69.5 -31.5t28.5 -76.5
q0 -44 -28.5 -75.5t-68.5 -32.5v0zM704 405q0 -17 -12.5 -29.5t-30.5 -12.5q-17 0 -29.5 12.5t-12.5 29.5q0 18 12.5 30.5t29.5 12.5q18 0 30.5 -12.5t12.5 -30.5v0z" />
    <glyph glyph-name="uniE62B" unicode="&#xe62b;" 
d="M704 811q-56 0 -106.5 -24.5t-85.5 -65.5q-35 41 -85.5 65.5t-106.5 24.5q-49 0 -92 -18.5t-74.5 -50t-50 -74.5t-18.5 -92q0 -60 26.5 -116.5t74 -115t115 -122t149.5 -138.5l62 -56l62 56q82 75 149.5 138.5t115 122t74 115t26.5 116.5q0 49 -18.5 92t-50 74.5
t-74.5 50t-92 18.5v0zM516 147l-4 -4l-4 4q-76 69 -138.5 127.5t-106.5 110t-68 98.5t-24 93q0 64 42.5 106.5t106.5 42.5q49 0 92 -28.5t60 -71.5h80q17 43 60 71.5t92 28.5q64 0 106.5 -42.5t42.5 -106.5q0 -46 -24 -93t-68 -98.5t-106.5 -110t-138.5 -127.5v0z" />
    <glyph glyph-name="uniE62C" unicode="&#xe62c;" 
d="M512 28l-62 56q-82 75 -149.5 138.5t-115 122t-74 115t-26.5 116.5q0 49 18.5 92t50 74.5t74.5 50t92 18.5q56 0 106.5 -24.5t85.5 -65.5q35 41 85.5 65.5t106.5 24.5q49 0 92 -18.5t74.5 -50t50 -74.5t18.5 -92q0 -60 -26.5 -116.5t-74 -115t-115 -122t-149.5 -138.5
l-62 -56v0z" />
    <glyph glyph-name="uniE62D" unicode="&#xe62d;" 
d="M853 103v494l-256 256h-341q-35 0 -60 -25t-25 -60v-683q0 -35 24.5 -60t60.5 -25h512q14 0 27 4.5t24 12.5l-189 189q-26 -17 -55.5 -26t-62.5 -9q-44 0 -83 16.5t-68 45.5t-45.5 68t-16.5 83t16.5 83t45.5 68t68 45.5t83 16.5t83 -16.5t68 -45.5t45.5 -68t16.5 -83
q0 -33 -9 -62.5t-26 -54.5l163 -164v0zM384 384q0 -53 37.5 -90.5t90.5 -37.5t90.5 37.5t37.5 90.5t-37.5 90.5t-90.5 37.5t-90.5 -37.5t-37.5 -90.5v0z" />
    <glyph glyph-name="uniE62E" unicode="&#xe62e;" 
d="M469 683q44 0 83 -17t68 -46l-108 -108h256v256l-87 -87q-41 40 -95.5 63.5t-116.5 23.5q-56 0 -106.5 -19.5t-89.5 -54t-65 -81.5t-34 -101h86q15 73 73.5 122t135.5 49v0zM710 293q21 28 35 62t20 72h-87q-14 -73 -72.5 -122t-136.5 -49q-44 0 -83 16.5t-68 45.5
l109 109h-256v-256l87 87q41 -41 95.5 -64t115.5 -23q50 0 95 15t82 43l207 -207l64 63l-207 208v0z" />
    <glyph glyph-name="uniE62F" unicode="&#xe62f;" 
d="M384 640h-85v-85h85v85v0zM384 469h-85v-85h85v85v0zM384 811q-36 0 -60.5 -25t-24.5 -61h85v86v0zM555 299h-86v-86h86v86v0zM811 811v-86h85q0 36 -25 61t-60 25v0zM555 811h-86v-86h86v86v0zM384 213v86h-85q0 -36 24.5 -61t60.5 -25v0zM811 384h85v85h-85v-85v0z
M811 555h85v85h-85v-85v0zM811 213q35 0 60 25t25 61h-85v-86v0zM213 640h-85v-512q0 -35 25 -60t60 -25h512v85h-512v512v0zM640 725h85v86h-85v-86v0zM640 213h85v86h-85v-86v0z" />
    <glyph glyph-name="uniE630" unicode="&#xe630;" 
d="M128 384h85v85h-85v-85v0zM128 213h85v86h-85v-86v0zM213 43v85h-85q0 -35 25 -60t60 -25v0zM128 555h85v85h-85v-85v0zM640 43h85v85h-85v-85v0zM811 811h-427q-36 0 -60.5 -25t-24.5 -61v-426q0 -36 24.5 -61t60.5 -25h427q35 0 60 25t25 61v426q0 36 -25 61t-60 25v0z
M811 299h-427v426h427v-426v0zM469 43h86v85h-86v-85v0zM299 43h85v85h-85v-85v0z" />
    <glyph glyph-name="uniE631" unicode="&#xe631;" 
d="M811 555h-171v256h-256v-256h-171l299 -299l299 299v0zM213 171v-86h598v86h-598v0z" />
    <glyph glyph-name="uniE632" unicode="&#xe632;" 
d="M512 202l264 -159l-70 300l233 201l-307 26l-120 283l-120 -283l-307 -26l233 -201l-70 -300z" />
    <glyph glyph-name="uniE633" unicode="&#xe633;" 
d="M512 853q-88 0 -166 -33.5t-136 -91.5t-91.5 -135.5t-33.5 -165.5q0 -89 33.5 -166.5t91.5 -135.5t136 -91.5t166 -33.5t166 33.5t136 91.5t91.5 135.5t33.5 166.5q0 88 -33.5 165.5t-91.5 135.5t-136 91.5t-166 33.5v0zM341 192q-44 0 -75 31.5t-31 75.5t31 75t75 31
t75.5 -31t31.5 -75t-31.5 -75.5t-75.5 -31.5v0zM405 597q0 44 31.5 75.5t75.5 31.5t75.5 -31.5t31.5 -75.5t-31.5 -75t-75.5 -31t-75.5 31t-31.5 75v0zM683 192q-44 0 -75.5 31.5t-31.5 75.5t31.5 75t75.5 31t75 -31t31 -75t-31 -75.5t-75 -31.5v0z" />
    <glyph glyph-name="uniE634" unicode="&#xe634;" 
d="M512 853q-88 0 -166 -33.5t-136 -91.5t-91.5 -135.5t-33.5 -165.5q0 -89 33.5 -166.5t91.5 -135.5t136 -91.5t166 -33.5t166 33.5t136 91.5t91.5 135.5t33.5 166.5q0 88 -33.5 165.5t-91.5 135.5t-136 91.5t-166 33.5v0zM555 128h-86v85h86v-85v0zM643 459l-38 -40
q-23 -23 -36.5 -47.5t-13.5 -72.5h-86v21q0 35 13.5 66t36.5 55l53 54q12 11 18.5 26.5t6.5 33.5q0 35 -25 60t-60 25t-60 -25t-25 -60h-86q0 70 50 120t121 50t121 -50t50 -120q0 -28 -11 -53t-29 -43v0z" />
    <glyph glyph-name="uniE635" unicode="&#xe635;" 
d="M623 597l-111 -110l-111 110l-60 -60l111 -110l-111 -111l60 -60l111 111l111 -111l60 60l-111 111l111 110l-60 60v0zM512 853q-88 0 -166 -33.5t-136 -91t-91.5 -135.5t-33.5 -166q0 -89 33.5 -166.5t91.5 -135.5t136 -91.5t166 -33.5t166 33.5t136 91.5t91.5 135.5
t33.5 166.5q0 88 -33.5 166t-91.5 135.5t-136 91t-166 33.5v0zM512 85q-71 0 -133 27t-108.5 73.5t-73 108.5t-26.5 133q0 70 26.5 132.5t73 108.5t108.5 73t133 27t133 -27t108.5 -73t73 -108.5t26.5 -132.5q0 -71 -26.5 -133t-73 -108.5t-108.5 -73.5t-133 -27v0z" />
    <glyph glyph-name="uniE636" unicode="&#xe636;" 
d="M555 811q-80 0 -150 -30.5t-122 -82.5t-82 -122t-30 -149h-128l166 -166l3 -6l172 172h-128q0 62 23.5 116t64 94.5t95 64t116.5 23.5t116 -23.5t94.5 -64t64 -94.5t23.5 -116t-23.5 -116.5t-64 -95t-94.5 -64t-116 -23.5t-116.5 23.5t-94.5 64.5l-61 -61q52 -52 122 -82
t150 -30q79 0 149 30t122 82t82.5 122t30.5 150q0 79 -30.5 149t-82.5 122t-122 82.5t-149 30.5v0zM512 597v-213l183 -108l30 51l-149 89v181h-64v0z" />
    <glyph glyph-name="uniE637" unicode="&#xe637;" 
d="M427 85v256h170v-256h214v342h128l-427 384l-427 -384h128v-342h214z" />
    <glyph glyph-name="uniE638" unicode="&#xe638;" 
d="M768 597h-43v86q0 44 -16.5 83t-45.5 67.5t-68 45.5t-83 17t-83 -17t-68 -45.5t-45.5 -67.5t-16.5 -83v-86h-43q-35 0 -60 -25t-25 -60v-427q0 -35 25 -60t60 -25h512q35 0 60 25t25 60v427q0 35 -25 60t-60 25v0zM512 213q-35 0 -60 25t-25 61q0 35 25 60t60 25t60 -25
t25 -60q0 -36 -25 -61t-60 -25v0zM644 597h-264v86q0 54 38.5 93t93.5 39t93.5 -39t38.5 -93v-86v0z" />
    <glyph glyph-name="uniE639" unicode="&#xe639;" 
d="M469 213h86v256h-86v-256v0zM512 853q-88 0 -166 -33.5t-136 -91.5t-91.5 -135.5t-33.5 -165.5q0 -89 33.5 -166.5t91.5 -135.5t136 -91.5t166 -33.5t166 33.5t136 91.5t91.5 135.5t33.5 166.5q0 88 -33.5 165.5t-91.5 135.5t-136 91.5t-166 33.5v0zM512 85
q-71 0 -133 27t-108.5 73.5t-73 108.5t-26.5 133q0 70 26.5 132.5t73 108.5t108.5 73t133 27t133 -27t108.5 -73t73 -108.5t26.5 -132.5q0 -71 -26.5 -133t-73 -108.5t-108.5 -73.5t-133 -27v0zM469 555h86v85h-86v-85v0z" />
    <glyph glyph-name="uniE63A" unicode="&#xe63a;" 
d="M512 853q-88 0 -166 -33.5t-136 -91.5t-91.5 -135.5t-33.5 -165.5q0 -89 33.5 -166.5t91.5 -135.5t136 -91.5t166 -33.5t166 33.5t136 91.5t91.5 135.5t33.5 166.5q0 88 -33.5 165.5t-91.5 135.5t-136 91.5t-166 33.5v0zM555 213h-86v256h86v-256v0zM555 555h-86v85h86
v-85v0z" />
    <glyph glyph-name="uniE63B" unicode="&#xe63b;" 
d="M896 810h-768q-35 0 -60 -25t-25 -60v-170h85v171h768v-599h-768v172h-85v-171q0 -36 25 -60.5t60 -24.5h768q35 0 60 24.5t25 60.5v597q0 35 -25 60t-60 25v0zM469 256l171 171l-171 170v-128h-426v-85h426v-128v0z" />
    <glyph glyph-name="uniE63C" unicode="&#xe63c;" 
d="M753 600l-241 242l-241 -242q-50 -50 -75 -112.5t-25 -128t25 -128.5t75 -113q49 -50 112 -75t129 -25t129 25t112 75q50 50 75 113t25 128.5t-25 128t-75 112.5v0zM512 103q-51 0 -98 19t-83 56q-36 36 -55.5 83t-19.5 98t19.5 98t55.5 83l181 181v-618v0z" />
    <glyph glyph-name="uniE63D" unicode="&#xe63d;" 
d="M752 689q-11 17 -29.5 26.5t-39.5 9.5h-470q-35 0 -60 -25t-25 -60v-427q0 -35 25 -60t60 -25h470q21 0 39.5 10t29.5 26l187 263l-187 262v0zM683 213h-470v427h470l151 -213l-151 -214v0z" />
    <glyph glyph-name="uniE63E" unicode="&#xe63e;" 
d="M752 689q-11 17 -29.5 26.5t-39.5 9.5h-470q-35 0 -60 -25t-25 -60v-427q0 -35 25 -60t60 -25h470q21 0 39.5 10t29.5 26l187 263l-187 262v0z" />
    <glyph glyph-name="uniE63F" unicode="&#xe63f;" 
d="M512 853q-89 0 -166.5 -33.5t-135.5 -91.5t-91.5 -135.5t-33.5 -165.5q0 -89 33.5 -166.5t91.5 -135.5t135.5 -91.5t166.5 -33.5q88 0 166 33.5t136 91.5t91.5 135.5t33.5 166.5q0 88 -33.5 165.5t-91.5 135.5t-136 91.5t-166 33.5v0zM807 597h-126q-10 40 -24.5 78.5
t-33.5 73.5q58 -20 106 -59.5t78 -92.5v0zM512 766q27 -38 47.5 -80.5t33.5 -88.5h-162q13 46 33.5 88.5t47.5 80.5v0zM182 341q-5 21 -8 42.5t-3 43.5t3 43.5t8 41.5h144q-3 -21 -4.5 -42.5t-1.5 -42.5q0 -22 1.5 -43.5t4.5 -42.5h-144v0zM217 256h126q10 -40 24.5 -78
t33.5 -74q-58 20 -106 59.5t-78 92.5v0zM343 597h-126q30 53 78 92.5t106 59.5q-19 -35 -33.5 -73.5t-24.5 -78.5v0zM512 87q-27 38 -47.5 80.5t-33.5 88.5h162q-13 -46 -33.5 -88.5t-47.5 -80.5v0zM612 341h-200q-3 21 -5 42.5t-2 43.5q0 21 2 42.5t5 42.5h200
q3 -21 5 -42.5t2 -42.5q0 -22 -2 -43.5t-5 -42.5v0zM623 104q19 36 33.5 74t24.5 78h126q-30 -53 -78 -92.5t-106 -59.5v0zM698 341q3 21 4.5 42.5t1.5 43.5q0 21 -1.5 42.5t-4.5 42.5h144q5 -20 8 -41.5t3 -43.5t-3 -43.5t-8 -42.5h-144v0z" />
    <glyph glyph-name="uniE640" unicode="&#xe640;" 
d="M811 128h-598v597h299v86h-299q-35 0 -60 -25t-25 -61v-597q0 -35 25 -60t60 -25h598q35 0 60 25t25 60v299h-85v-299v0zM597 811v-86h154l-420 -419l60 -60l420 419v-153h85v299h-299v0z" />
    <glyph glyph-name="uniE641" unicode="&#xe641;" 
d="M128 384h85v85h-85v-85v0zM128 213h85v86h-85v-86v0zM128 555h85v85h-85v-85v0zM299 384h597v85h-597v-85v0zM299 213h597v86h-597v-86v0zM299 640v-85h597v85h-597v0z" />
    <glyph glyph-name="uniE642" unicode="&#xe642;" 
d="M512 213q35 0 60 25t25 61q0 35 -25 60t-60 25t-60 -25t-25 -60q0 -36 25 -61t60 -25v0zM768 597h-43v86q0 44 -16.5 83t-45.5 67.5t-68 45.5t-83 17t-83 -17t-68 -45.5t-45.5 -67.5t-16.5 -83h81q0 54 38.5 93t93.5 39t93.5 -39t38.5 -93v-86h-388q-35 0 -60 -25
t-25 -60v-427q0 -35 25 -60t60 -25h512q35 0 60 25t25 60v427q0 35 -25 60t-60 25v0zM768 85h-512v427h512v-427v0z" />
    <glyph glyph-name="uniE643" unicode="&#xe643;" 
d="M768 597h-43v86q0 44 -16.5 83t-45.5 67.5t-68 45.5t-83 17t-83 -17t-68 -45.5t-45.5 -67.5t-16.5 -83v-86h-43q-35 0 -60 -25t-25 -60v-427q0 -35 25 -60t60 -25h512q35 0 60 25t25 60v427q0 35 -25 60t-60 25v0zM512 815q55 0 93.5 -39t38.5 -93v-86h-260v86h-4
q0 54 38.5 93t93.5 39v0zM768 85h-512v427h512v-427v0zM512 213q35 0 60 25t25 61q0 35 -25 60t-60 25t-60 -25t-25 -60q0 -36 25 -61t60 -25v0z" />
    <glyph glyph-name="uniE644" unicode="&#xe644;" 
d="M768 597h-43v86q0 44 -16.5 83t-45.5 67.5t-68 45.5t-83 17t-83 -17t-68 -45.5t-45.5 -67.5t-16.5 -83v-86h-43q-35 0 -60 -25t-25 -60v-427q0 -35 25 -60t60 -25h512q35 0 60 25t25 60v427q0 35 -25 60t-60 25v0zM512 213q-35 0 -60 25t-25 61q0 35 25 60t60 25t60 -25
t25 -60q0 -36 -25 -61t-60 -25v0zM644 597h-264v86q0 54 38.5 93t93.5 39t93.5 -39t38.5 -93v-86v0z" />
    <glyph glyph-name="uniE645" unicode="&#xe645;" 
d="M913 445l-384 384q-11 11 -26.5 17.5t-33.5 6.5h-298q-36 0 -61 -25t-25 -60v-299q0 -17 7 -32.5t19 -27.5l384 -384q11 -12 26.5 -18.5t33.5 -6.5q17 0 32.5 6.5t27.5 18.5l298 299q12 11 19 26.5t7 33.5t-7 33.5t-19 27.5v0zM235 640q-27 0 -45.5 18.5t-18.5 45.5
t18.5 45.5t45.5 18.5q26 0 45 -18.5t19 -45.5t-19 -45.5t-45 -18.5v0zM737 287l-182 -182l-183 182q-14 15 -22.5 34.5t-8.5 41.5q0 44 31.5 75t75.5 31q22 0 41.5 -8.5t34.5 -22.5l31 -31l31 31q14 15 33.5 23t41.5 8q44 0 75.5 -31t31.5 -75q0 -22 -8.5 -41.5t-22.5 -34.5
v0z" />
    <glyph glyph-name="uniE646" unicode="&#xe646;" 
d="M853 683h-426v-256h-86v341h256v171h-341v-256h-85q-36 0 -61 -25t-25 -61v-512q0 -35 25 -60t61 -25h682q36 0 61 25t25 60v512q0 36 -25 61t-61 25v0z" />
    <glyph glyph-name="uniE647" unicode="&#xe647;" 
d="M597 853h-341q-35 0 -60 -25t-25 -60v-683q0 -35 24.5 -60t60.5 -25h512q35 0 60 25t25 60v512l-256 256v0zM683 256h-128v-128h-86v128h-128v85h128v128h86v-128h128v-85v0zM555 555v234l234 -234h-234v0z" />
    <glyph glyph-name="uniE648" unicode="&#xe648;" 
d="M811 768h-598q-35 0 -60 -25t-25 -60v-512q0 -36 25 -61t60 -25h171v86h-171v426h598v-426h-171v-86h171q35 0 60 25t25 61v512q0 35 -25 60t-60 25v0zM512 512l-171 -171h128v-256h86v256h128l-171 171v0z" />
    <glyph glyph-name="uniE649" unicode="&#xe649;" 
d="M811 128h-598v597h299v86h-299q-35 0 -60 -25t-25 -61v-597q0 -35 25 -60t60 -25h598q35 0 60 25t25 60v299h-85v-299v0zM597 811v-86h154l-420 -419l60 -60l420 419v-153h85v299h-299v0z" />
    <glyph glyph-name="uniE64A" unicode="&#xe64a;" 
d="M427 555h170v128h128l-213 213l-213 -213h128v-128v0zM384 512h-128v128l-213 -213l213 -214v128h128v171v0zM981 427l-213 213v-128h-128v-171h128v-128l213 214v0zM597 299h-170v-128h-128l213 -214l213 214h-128v128v0z" />
    <glyph glyph-name="uniE64B" unicode="&#xe64b;" 
d="M469 597q-53 0 -90.5 -37.5t-37.5 -90.5t37.5 -90.5t90.5 -37.5t90.5 37.5t37.5 90.5t-37.5 90.5t-90.5 37.5v0zM811 811h-598q-35 0 -60 -25t-25 -61v-597q0 -35 25 -60t60 -25h598q35 0 60 25t25 60v597q0 36 -25 61t-60 25v0zM751 128l-164 163q-26 -16 -55.5 -25.5
t-62.5 -9.5q-44 0 -83 17t-67.5 45.5t-45.5 67.5t-17 83t17 83t45.5 68t67.5 46t83 17t83 -17t68 -46t46 -68t17 -83q0 -32 -9.5 -62t-26.5 -55l164 -164l-60 -60v0z" />
    <glyph glyph-name="uniE64C" unicode="&#xe64c;" 
d="M853 768h-682q-36 0 -60.5 -25t-24.5 -60l-1 -512q0 -36 25 -61t61 -25h682q36 0 61 25t25 61v512q0 35 -25 60t-61 25v0zM853 171h-682v256h682v-256v0zM853 597h-682v86h682v-86v0z" />
    <glyph glyph-name="uniE64D" unicode="&#xe64d;" 
d="M853 725h-135l-78 86h-256l-78 -86h-135q-36 0 -61 -25t-25 -60v-512q0 -35 25 -60t61 -25h298v89q-45 8 -84 30.5t-67.5 56t-45 75.5t-16.5 90h85q0 -71 50 -121t121 -50t121 50t50 121h85q0 -48 -16.5 -90t-45 -75.5t-67.5 -56t-84 -30.5v-89h298q36 0 61 25t25 60v512
q0 35 -25 60t-61 25v0zM597 384q0 -35 -25 -60t-60 -25t-60 25t-25 60v171q0 35 25 60t60 25t60 -25t25 -60v-171v0z" />
    <glyph glyph-name="uniE64E" unicode="&#xe64e;" 
d="M811 811h-43v85h-85v-85h-342v85h-85v-85h-43q-35 0 -60 -25t-25 -61v-597q0 -35 25 -60t60 -25h598q35 0 60 25t25 60v597q0 36 -25 61t-60 25v0zM512 683q53 0 90.5 -37.5t37.5 -90.5t-37.5 -90.5t-90.5 -37.5t-90.5 37.5t-37.5 90.5t37.5 90.5t90.5 37.5v0zM768 171
h-512v42q0 32 28 57t68 41.5t84 25.5t76 9t76 -9t84 -25.5t68 -41.5t28 -57v-42v0z" />
    <glyph glyph-name="uniE64F" unicode="&#xe64f;" 
d="M810 448q11 0 21.5 -1t21.5 -2v494l-853 -854h493q-1 11 -2 21.5t-1 21.5q0 66 25.5 124.5t68.5 102t101.5 68.5t124.5 25v0zM969 107q0 5 0.5 10.5t0.5 10.5t-0.5 10.5t-0.5 10.5l45 35q3 3 3.5 6.5t-1.5 7.5l-42 74q-2 3 -6 4.5t-8 -0.5l-52 -21q-9 7 -18 12t-19 9
l-8 56q0 4 -3 6.5t-7 2.5h-85q-4 0 -7 -2.5t-4 -6.5l-8 -56q-10 -4 -19 -9t-17 -12l-53 21q-4 2 -7.5 0.5t-6.5 -4.5l-42 -74q-2 -4 -1.5 -7.5t3.5 -6.5l46 -35q-1 -5 -1.5 -10.5t-0.5 -10.5t0.5 -10.5t1.5 -10.5l-46 -35q-3 -3 -3.5 -6.5t1.5 -7.5l42 -74q2 -3 6 -4.5
t8 0.5l53 21q8 -7 17 -12t19 -9l8 -56q1 -4 3.5 -6.5t7.5 -2.5h85q4 0 7 2.5t4 6.5l8 56q9 4 18.5 9t17.5 12l53 -21q3 -2 7 -0.5t6 4.5l43 74q2 4 1 7.5t-4 6.5l-45 35v0zM810 64q-26 0 -45 18.5t-19 45.5t19 45.5t45 18.5q27 0 45.5 -18.5t18.5 -45.5t-18.5 -45.5
t-45.5 -18.5v0z" />
    <glyph glyph-name="uniE650" unicode="&#xe650;" 
d="M555 640h-86v-85h86v85v0zM555 469h-86v-256h86v256v0zM725 896h-426q-36 0 -61 -25t-25 -60v-768q0 -36 25 -61t61 -25h426q36 0 61 25t25 61v768q0 35 -25 60t-61 25v0zM725 128h-426v597h426v-597v0z" />
    <glyph glyph-name="uniE651" unicode="&#xe651;" 
d="M512 687q37 0 63.5 -26.5t26.5 -63.5t-26.5 -63t-63.5 -26t-63.5 26t-26.5 63t26.5 63.5t63.5 26.5v0zM512 303q48 0 94.5 -10t83.5 -24.5t59.5 -29.5t22.5 -26v-47h-520v47q0 11 22.5 26t59.5 29.5t83.5 24.5t94.5 10v0zM512 768q-71 0 -121 -50t-50 -121q0 -70 50 -120
t121 -50t121 50t50 120q0 71 -50 121t-121 50v0zM512 384q-43 0 -101.5 -10.5t-112 -32t-90.5 -53.5t-37 -75v-128h682v128q0 43 -37 75t-90.5 53.5t-112 32t-101.5 10.5v0z" />
    <glyph glyph-name="uniE652" unicode="&#xe652;" 
d="M85 683h-85v-214v0v-384q0 -35 25 -60t60 -25h768v85h-768v598v0zM939 768h-342l-85 85h-256q-35 0 -60 -25t-25 -60v-512q0 -35 25 -60t60 -25h683q35 0 60 25t25 60v427q0 35 -25 60t-60 25v0zM299 299l192 256l149 -193l107 129l149 -192h-597v0z" />
    <glyph glyph-name="uniE653" unicode="&#xe653;" 
d="M853 277q-40 0 -78 6.5t-74 18.5q-11 3 -23 0.5t-21 -11.5l-93 -93q-46 23 -87 52.5t-76.5 65t-65.5 76.5t-53 86l94 95q9 8 12 19.5t-1 23.5q-12 36 -18 74t-6 78q0 18 -12.5 30.5t-30.5 12.5h-149q-18 0 -30.5 -12.5t-12.5 -30.5q0 -150 57 -282t155.5 -230.5
t230.5 -155.5t282 -57q18 0 30.5 12.5t12.5 29.5v150q0 17 -12.5 29.5t-30.5 12.5v0zM512 811v-427l128 128h256v299h-384v0z" />
    <glyph glyph-name="uniE654" unicode="&#xe654;" 
d="M512 811q-81 0 -152 -14t-134.5 -38.5t-119.5 -57.5t-106 -71l512 -630l512 629q-50 38 -106 71.5t-119.5 58t-134.5 38.5t-152 14v0zM555 256h-86v256h86v-256v0zM469 597v86h86v-86h-86v0z" />
    <glyph glyph-name="uniE655" unicode="&#xe655;" 
d="M811 640h-342v-256h342v256v0zM896 811h-768q-35 0 -60 -25t-25 -61v-597q0 -35 25 -59.5t60 -24.5h768q35 0 60 24.5t25 59.5v597q0 36 -25 61t-60 25v0zM896 128h-768v598h768v-598v0z" />
    <glyph glyph-name="uniE656" unicode="&#xe656;" 
d="M811 768h-171l-337 -539l-111 198l192 341h-171l-192 -341l192 -342h171l337 539l111 -197l-192 -342h171l192 342z" />
    <glyph glyph-name="uniE657" unicode="&#xe657;" 
d="M811 597h-598q-53 0 -90.5 -37.5t-37.5 -90.5v-256h171v-170h512v170h171v256q0 53 -37.5 90.5t-90.5 37.5v0zM683 128h-342v213h342v-213v0zM811 427q-18 0 -30.5 12.5t-12.5 29.5q0 18 12.5 30.5t30.5 12.5q17 0 29.5 -12.5t12.5 -30.5q0 -17 -12.5 -29.5t-29.5 -12.5
v0zM768 811h-512v-171h512v171v0z" />
    <glyph glyph-name="uniE658" unicode="&#xe658;" 
d="M512 853q-89 0 -166.5 -33.5t-135.5 -91.5t-91.5 -135.5t-33.5 -165.5q0 -89 33.5 -166.5t91.5 -135.5t135.5 -91.5t166.5 -33.5q88 0 166 33.5t136 91.5t91.5 135.5t33.5 166.5q0 88 -33.5 165.5t-91.5 135.5t-136 91.5t-166 33.5v0zM512 85q-71 0 -133 27t-108.5 73.5
t-73 108.5t-26.5 133q0 70 26.5 132.5t73 108.5t108.5 73t133 27t133 -27t108.5 -73t73 -108.5t26.5 -132.5q0 -71 -26.5 -133t-73 -108.5t-108.5 -73.5t-133 -27v0zM533 640h-64v-256l224 -134l32 52l-192 114v224z" />
    <glyph glyph-name="uniE659" unicode="&#xe659;" 
d="M896 683h-85v-384h-555v-86q0 -17 12.5 -29.5t30.5 -12.5h469l171 -171v640q0 18 -12.5 30.5t-30.5 12.5v0zM725 427v384q0 17 -12.5 29.5t-29.5 12.5h-555q-18 0 -30.5 -12.5t-12.5 -29.5v-598l171 171h427q17 0 29.5 12.5t12.5 30.5v0z" />
    <glyph glyph-name="uniE65A" unicode="&#xe65a;" 
d="M768 213h-512v86h512v-86v0zM768 384h-512v85h512v-85v0zM768 555h-512v85h512v-85v0zM128 0l64 64l64 -64l64 64l64 -64l64 64l64 -64l64 64l64 -64l64 64l64 -64l64 64l64 -64v853l-64 -64l-64 64l-64 -64l-64 64l-64 -64l-64 64l-64 -64l-64 64l-64 -64l-64 64
l-64 -64l-64 64v-853v0z" />
    <glyph glyph-name="uniE65B" unicode="&#xe65b;" 
d="M853 683h-93q4 10 6 20.5t2 21.5q0 53 -37.5 90.5t-90.5 37.5q-34 0 -61.5 -15.5t-45.5 -41.5l-21 -29l-21 29q-18 26 -45.5 41.5t-61.5 15.5q-53 0 -90.5 -37.5t-37.5 -90.5q0 -11 2 -21.5t6 -20.5h-93q-36 0 -60.5 -25t-24.5 -61l-1 -469q0 -36 25 -60.5t61 -24.5h682
q36 0 61 24.5t25 60.5v469q0 36 -25 61t-61 25v0zM640 768q18 0 30.5 -12.5t12.5 -30.5q0 -17 -12.5 -29.5t-30.5 -12.5t-30.5 12.5t-12.5 29.5q0 18 12.5 30.5t30.5 12.5v0zM384 768q18 0 30.5 -12.5t12.5 -30.5q0 -17 -12.5 -29.5t-30.5 -12.5t-30.5 12.5t-12.5 29.5
q0 18 12.5 30.5t30.5 12.5v0zM853 128h-682v85h682v-85v0zM853 341h-682v256h216l-88 -120l69 -50l144 196l144 -196l69 50l-88 120h216v-256v0z" />
    <glyph glyph-name="uniE65C" unicode="&#xe65c;" 
d="M128 299h768v85h-768v-85v0zM128 128h768v85h-768v-85v0zM128 469h768v86h-768v-86v0zM128 725v-85h768v85h-768v0z" />
    <glyph glyph-name="uniE65D" unicode="&#xe65d;" 
d="M43 43h938l-469 810l-469 -810v0zM555 171h-86v85h86v-85v0zM555 341h-86v171h86v-171v0z" />
    <glyph glyph-name="uniE65E" unicode="&#xe65e;" 
d="M555 811q-80 0 -150 -30.5t-122 -82.5t-82 -122t-30 -149h-128l166 -166l3 -6l172 172h-128q0 62 23.5 116t64 94.5t95 64t116.5 23.5t116 -23.5t94.5 -64t64 -94.5t23.5 -116t-23.5 -116.5t-64 -95t-94.5 -64t-116 -23.5t-116.5 23.5t-94.5 64.5l-61 -61q52 -52 122 -82
t150 -30q79 0 149 30t122 82t82.5 122t30.5 150q0 79 -30.5 149t-82.5 122t-122 82.5t-149 30.5v0zM512 597v-213l183 -108l30 51l-149 89v181h-64v0z" />
    <glyph glyph-name="uniE65F" unicode="&#xe65f;" 
d="M512 853q-62 0 -116.5 -23.5t-95 -64t-64 -94.5t-23.5 -116q0 -84 47 -181.5t103 -180.5t102.5 -138l46.5 -55l46.5 55t102.5 138t103 180.5t47 181.5q0 62 -23.5 116t-64 94.5t-95 64t-116.5 23.5v0zM512 448q-44 0 -75.5 31.5t-31.5 75.5t31.5 75t75.5 31t75.5 -31
t31.5 -75t-31.5 -75.5t-75.5 -31.5v0z" />
    <glyph glyph-name="uniE660" unicode="&#xe660;" 
d="M512 853q-89 0 -166.5 -33.5t-135.5 -91.5t-91.5 -135.5t-33.5 -165.5q0 -89 33.5 -166.5t91.5 -135.5t135.5 -91.5t166.5 -33.5q88 0 166 33.5t136 91.5t91.5 135.5t33.5 166.5q0 88 -33.5 165.5t-91.5 135.5t-136 91.5t-166 33.5v0zM512 85q-71 0 -133 27t-108.5 73.5
t-73 108.5t-26.5 133q0 70 26.5 132.5t73 108.5t108.5 73t133 27t133 -27t108.5 -73t73 -108.5t26.5 -132.5q0 -71 -26.5 -133t-73 -108.5t-108.5 -73.5t-133 -27v0zM533 640h-64v-256l224 -134l32 52l-192 114v224z" />
    <glyph glyph-name="uniE661" unicode="&#xe661;" 
d="M661 341h-33l-12 12q31 36 49 82.5t18 97.5q0 58 -22 108.5t-59.5 88t-88 59.5t-108.5 22q-57 0 -107.5 -22t-88 -59.5t-59.5 -88t-22 -108.5q0 -57 22 -107.5t59.5 -88t88 -59.5t107.5 -22q52 0 98 18t83 49l11 -12v-34l214 -213l63 64l-213 213v0zM405 341
q-79 0 -135.5 56.5t-56.5 135.5q0 80 56.5 136t135.5 56q80 0 136 -56t56 -136q0 -79 -56 -135.5t-136 -56.5v0z" />
    <glyph glyph-name="uniE662" unicode="&#xe662;" 
d="M512 512q-35 0 -60 -25t-25 -60q0 -36 25 -61t60 -25t60 25t25 61q0 35 -25 60t-60 25v0zM811 811h-598q-35 0 -60 -25t-25 -61v-597q0 -35 25 -60t60 -25h598q35 0 60 25t25 60v597q0 36 -25 61t-60 25v0zM736 427q0 -8 -0.5 -15t-1.5 -14l63 -50q4 -3 5 -8.5t-2 -10.5
l-59 -103q-3 -5 -8.5 -7t-10.5 0l-74 30q-11 -9 -24 -16.5t-26 -12.5l-11 -79q-1 -6 -5.5 -9.5t-9.5 -3.5h-120q-5 0 -9.5 3.5t-5.5 8.5l-11 79q-14 6 -26.5 13.5t-23.5 16.5l-74 -30q-5 -2 -10.5 -0.5t-8.5 6.5l-59 104q-3 4 -2 9.5t5 9.5l63 49q-1 8 -1.5 15t-0.5 15
q0 7 0.5 14.5t1.5 14.5l-63 49q-4 4 -5 9.5t2 9.5l59 104q3 4 8.5 6t10.5 0l74 -30q11 9 24 16.5t26 13.5l11 79q1 5 5.5 8.5t9.5 3.5h120q5 0 9.5 -3.5t5.5 -8.5l11 -79q14 -6 26.5 -13t23.5 -16l74 29q5 2 10.5 0.5t8.5 -6.5l59 -103q3 -5 2 -10.5t-5 -8.5l-63 -50
q1 -7 1.5 -14.5t0.5 -14.5v0z" />
    <glyph glyph-name="uniE663" unicode="&#xe663;" 
d="M597 427q0 35 -25 60t-60 25t-60 -25t-25 -60q0 -36 25 -61t60 -25t60 25t25 61v0zM512 811q-80 0 -149.5 -30.5t-122 -82.5t-82.5 -122t-30 -149h-128l171 -171l170 171h-128q0 62 23.5 116t64 94.5t95 64t116.5 23.5t116.5 -23.5t95 -64t64 -94.5t23.5 -116
t-23.5 -116.5t-64 -95t-95 -64t-116.5 -23.5q-48 0 -92 15t-81 40l-61 -61q49 -37 108.5 -58t125.5 -21q80 0 149.5 30t122 82t82.5 122t30 150q0 79 -30 149t-82.5 122t-122 82.5t-149.5 30.5v0z" />
    <glyph glyph-name="uniE664" unicode="&#xe664;" 
d="M469 -85h86v85h-86v-85v0zM299 -85h85v85h-85v-85v0zM640 -85h85v85h-85v-85v0zM756 695l-244 244h-43v-324l-196 196l-60 -60l239 -239l-239 -239l60 -60l196 196v-324h43l244 244l-184 183l184 183v0zM555 775l80 -80l-80 -80v160v0zM635 329l-80 -80v160l80 -80v0z
" />
    <glyph glyph-name="uniE665" unicode="&#xe665;" 
d="M299 -85h85v85h-85v-85v0zM469 -85h86v85h-86v-85v0zM640 -85h85v85h-85v-85v0zM683 938l-342 1q-35 0 -60 -25t-25 -61v-682q0 -36 25 -61t60 -25h342q35 0 60 25t25 61v682q0 36 -25 60.5t-60 24.5v0zM683 256h-342v512h342v-512v0z" />
    <glyph glyph-name="uniE666" unicode="&#xe666;" 
d="M896 811h-768q-35 0 -60 -25t-25 -61v-597q0 -35 25 -60t60 -25h768q35 0 60 25t25 60v597q0 36 -25 61t-60 25v0zM896 128h-768v598h768v-598v0zM341 256h107l64 -64l64 64h107v107l64 64l-64 64v106h-107l-64 64l-64 -64h-107v-106l-64 -64l64 -64v-107v0zM512 555
q53 0 90.5 -37.5t37.5 -90.5t-37.5 -90.5t-90.5 -37.5v256v0z" />
    <glyph glyph-name="uniE667" unicode="&#xe667;" 
d="M332 650l-66 55l-231 -278l231 -279l66 55l-186 224l186 223v0zM299 384h85v85h-85v-85v0zM725 469h-85v-85h85v85v0zM469 384h86v85h-86v-85v0zM758 705l-66 -55l186 -223l-186 -224l66 -55l231 279l-231 278v0z" />
    <glyph glyph-name="uniE668" unicode="&#xe668;" 
d="M512 725q-62 0 -116.5 -23.5t-95 -64t-64 -94.5t-23.5 -116h86q0 44 16.5 83t45.5 67.5t68 45.5t83 17t83 -17t68 -45.5t45.5 -67.5t16.5 -83h86q0 62 -23.5 116t-64 94.5t-95 64t-116.5 23.5v0zM555 329q28 12 46 38.5t18 59.5q0 44 -31.5 75t-75.5 31t-75.5 -31
t-31.5 -75q0 -33 18 -59.5t46 -38.5v-141l-145 -145l60 -60l128 128l128 -128l60 60l-145 145v141v0zM512 896q-97 0 -182.5 -37t-149.5 -100.5t-100.5 -149t-36.5 -182.5h85q0 79 30 149t82.5 122t122 82.5t149.5 30.5t149.5 -30.5t122 -82.5t82.5 -122t30 -149h85
q0 97 -36.5 182.5t-100.5 149t-149.5 100.5t-182.5 37v0z" />
    <glyph glyph-name="uniE669" unicode="&#xe669;" 
d="M213 853q0 18 -12.5 30.5t-29.5 12.5q-18 0 -30.5 -12.5t-12.5 -30.5v-170h-85v-256h256v256h-86v170v0zM384 256q0 -42 24 -74.5t61 -45.5v-179h86v179q37 13 61 45.5t24 74.5v85h-256v-85v0zM43 256q0 -42 24 -74.5t61 -45.5v-179h85v179q37 13 61.5 45.5t24.5 74.5v85
h-256v-85v0zM896 683v170q0 18 -12.5 30.5t-30.5 12.5q-17 0 -29.5 -12.5t-12.5 -30.5v-170h-86v-256h256v256h-85v0zM555 853q0 18 -12.5 30.5t-30.5 12.5t-30.5 -12.5t-12.5 -30.5v-170h-85v-256h256v256h-85v170v0zM725 256q0 -42 24.5 -74.5t61.5 -45.5v-179h85v179
q37 13 61 45.5t24 74.5v85h-256v-85v0z" />
    <glyph glyph-name="uniE66A" unicode="&#xe66a;" 
d="M213 853q0 18 -12.5 30.5t-29.5 12.5q-18 0 -30.5 -12.5t-12.5 -30.5v-170h-85v-256h256v256h-86v170v0zM384 256q0 -42 24 -74.5t61 -45.5v-179h86v179q37 13 61 45.5t24 74.5v85h-256v-85v0zM43 256q0 -42 24 -74.5t61 -45.5v-179h85v179q37 13 61.5 45.5t24.5 74.5v85
h-256v-85v0zM896 683v170q0 18 -12.5 30.5t-30.5 12.5q-17 0 -29.5 -12.5t-12.5 -30.5v-170h-86v-256h256v256h-85v0zM555 853q0 18 -12.5 30.5t-30.5 12.5t-30.5 -12.5t-12.5 -30.5v-170h-85v-256h256v256h-85v170v0zM725 256q0 -42 24.5 -74.5t61.5 -45.5v-179h85v179
q37 13 61 45.5t24 74.5v85h-256v-85v0z" />
    <glyph glyph-name="uniE66B" unicode="&#xe66b;" 
d="M768 640v128q0 35 -25 60t-60 25h-342q-35 0 -60 -25t-25 -60v-128h-43v-256l128 -256v-128h342v128l128 256v256h-43v0zM341 768h342v-128h-86v85h-42v-85h-86v85h-42v-85h-86v128v0z" />
    <glyph glyph-name="uniE66C" unicode="&#xe66c;" 
d="M341 448q0 27 -18.5 45.5t-45.5 18.5q-26 0 -45 -18.5t-19 -45.5t19 -45.5t45 -18.5q27 0 45.5 18.5t18.5 45.5v0zM640 661q0 27 -18.5 45.5t-45.5 18.5h-128q-27 0 -45.5 -18.5t-18.5 -45.5q0 -26 18.5 -45t45.5 -19h128q27 0 45.5 19t18.5 45v0zM363 299
q-27 0 -45.5 -19t-18.5 -45q0 -27 18.5 -45.5t45.5 -18.5q26 0 45 18.5t19 45.5q0 26 -19 45t-45 19v0zM512 896q-97 0 -182.5 -37t-149.5 -100.5t-100.5 -149t-36.5 -182.5t36.5 -182.5t100.5 -149.5t149.5 -101t182.5 -37t182.5 37t149.5 101t100.5 149.5t36.5 182.5
t-36.5 182.5t-100.5 149t-149.5 100.5t-182.5 37v0zM512 43q-79 0 -149 30t-122.5 82t-82.5 122t-30 150q0 79 30 149t82.5 122t122.5 82.5t149 30.5t149 -30.5t122.5 -82.5t82.5 -122t30 -149q0 -80 -30 -150t-82.5 -122t-122.5 -82t-149 -30v0zM747 512q-27 0 -45.5 -18.5
t-18.5 -45.5t18.5 -45.5t45.5 -18.5q26 0 45 18.5t19 45.5t-19 45.5t-45 18.5v0zM661 299q-26 0 -45 -19t-19 -45q0 -27 19 -45.5t45 -18.5q27 0 45.5 18.5t18.5 45.5q0 26 -18.5 45t-45.5 19v0z" />
    <glyph glyph-name="uniE66D" unicode="&#xe66d;" 
d="M512 704l-85 -107h170l-85 107v0zM768 512v-171l107 85l-107 86v0zM256 512l-107 -86l107 -85v171v0zM597 256h-170l85 -107l85 107v0zM896 811h-768q-35 0 -60 -25t-25 -61v-597q0 -35 25 -60t60 -25h768q35 0 60 25t25 60v597q0 36 -25 61t-60 25v0zM896 128h-768v598
h768v-598v0z" />
    <glyph glyph-name="uniE66E" unicode="&#xe66e;" 
d="M555 555h-86v-86h86v86v0zM725 555h-85v-86h85v86v0zM853 277q-40 0 -78 6.5t-74 18.5q-11 3 -23 0.5t-21 -11.5l-93 -93q-46 23 -87 52.5t-76.5 65t-65.5 76.5t-53 86l94 95q9 8 12 19.5t-1 23.5q-12 36 -18 74t-6 78q0 18 -12.5 30.5t-30.5 12.5h-149
q-18 0 -30.5 -12.5t-12.5 -30.5q0 -150 57 -282t155.5 -230.5t230.5 -155.5t282 -57q18 0 30.5 12.5t12.5 29.5v150q0 17 -12.5 29.5t-30.5 12.5v0zM811 555v-86h85v86h-85v0z" />
    <glyph glyph-name="uniE66F" unicode="&#xe66f;" 
d="M299 -85h85v85h-85v-85v0zM469 -85h86v85h-86v-85v0zM555 853h-86v-426h86v426v0zM707 749l-62 -62q55 -33 89 -90.5t34 -127.5q0 -53 -20 -99.5t-55 -81t-81.5 -55t-99.5 -20.5t-99.5 20.5t-81.5 55t-55 81t-20 99.5q0 70 34 127.5t89 91.5l-62 61q-33 -23 -60 -53
t-46 -66t-29.5 -76.5t-10.5 -84.5q0 -70 26.5 -132.5t73 -108.5t108.5 -73t133 -27t133 27t108.5 73t73 108.5t26.5 132.5q0 44 -10.5 84.5t-29.5 76.5t-46 66t-60 53v0zM640 -85h85v85h-85v-85v0z" />
    <glyph glyph-name="uniE670" unicode="&#xe670;" 
d="M640 555h-256q-18 0 -30.5 -12.5t-12.5 -30.5v-512q0 -18 12.5 -30.5t30.5 -12.5h256q18 0 30.5 12.5t12.5 30.5v512q0 18 -12.5 30.5t-30.5 12.5v0zM512 299q-35 0 -60 25t-25 60t25 60t60 25t60 -25t25 -60t-25 -60t-60 -25v0zM301 681l60 -61q29 29 68 46t83 17
t83 -17t68 -46l60 61q-40 40 -94.5 63.5t-116.5 23.5t-116.5 -23.5t-94.5 -63.5v0zM512 939q-49 0 -95 -9.5t-88 -27.5t-79.5 -43.5t-69.5 -57.5l60 -60q52 52 122 82t150 30t150 -30t121 -82l61 60q-32 32 -69.5 57.5t-79.5 43.5t-88 27.5t-95 9.5v0z" />
    <glyph glyph-name="uniE671" unicode="&#xe671;" 
d="M299 -85h85v85h-85v-85v0zM512 384q53 0 90.5 37.5t37.5 90.5v256q0 53 -37.5 90.5t-90.5 37.5t-90.5 -37.5t-37.5 -90.5v-256q0 -53 37.5 -90.5t90.5 -37.5v0zM469 -85h86v85h-86v-85v0zM640 -85h85v85h-85v-85v0zM811 512h-73q0 -48 -18.5 -88t-50 -69t-72.5 -45
t-85 -16t-85 16t-72.5 45t-50 69t-18.5 88h-73q0 -55 20.5 -103.5t55.5 -86.5t81.5 -63.5t98.5 -33.5v-140h86v140q52 8 98.5 33.5t81.5 63.5t55.5 86.5t20.5 103.5v0z" />
    <glyph glyph-name="uniE672" unicode="&#xe672;" 
d="M829 385q1 10 2 20.5t1 21.5t-1 21l-2 20l90 71q6 5 7.5 12.5t-2.5 14.5l-85 148q-4 7 -11.5 9.5t-14.5 -0.5l-106 -42q-17 12 -35 22.5t-38 18.5l-16 113q-1 8 -7 13t-14 5h-170q-8 0 -14 -5t-7 -13l-16 -113q-20 -8 -38 -18.5t-35 -22.5l-106 42q-7 3 -14.5 0.5
t-11.5 -9.5l-85 -148q-4 -7 -2.5 -14.5t7.5 -12.5l90 -71q-1 -10 -2 -20.5t-1 -20.5q0 -11 1 -21.5t2 -20.5l-90 -71q-6 -4 -7.5 -12t2.5 -15l85 -147q4 -8 11.5 -10t14.5 0l106 43q17 -13 35 -23.5t38 -18.5l16 -113q1 -8 7 -13t14 -5h170q8 0 14 5t7 13l16 113
q20 8 38 18.5t35 23.5l106 -43q7 -3 14.5 -0.5t11.5 10.5l85 147q4 7 2.5 15t-7.5 12l-90 71v0zM512 277q-62 0 -105.5 44t-43.5 106q0 61 43.5 105t105.5 44t105.5 -44t43.5 -105q0 -62 -43.5 -106t-105.5 -44v0z" />
    <glyph glyph-name="uniE673" unicode="&#xe673;" 
d="M128 555h-85v-470q0 -35 24.5 -60t60.5 -25h597q36 0 61 25t25 60h-683v470v0zM768 725v86q0 35 -25 60t-60 25h-171q-36 0 -60.5 -25t-24.5 -60v-86h-214v-469q0 -36 25 -60.5t61 -24.5h597q36 0 60.5 24.5t24.5 60.5v469h-213v0zM512 811h171v-86h-171v86v0zM512 299
v298l235 -128l-235 -170v0z" />
    <glyph glyph-name="uniE674" unicode="&#xe674;" 
d="M683 683v85q0 36 -25 60.5t-61 24.5h-170q-36 0 -61 -24.5t-25 -60.5v-85h-256v-555q0 -36 25 -60.5t61 -24.5h682q36 0 61 24.5t25 60.5v555h-256v0zM427 768h170v-85h-170v85v0zM384 171v384l320 -171l-320 -213v0z" />
    <glyph glyph-name="uniE675" unicode="&#xe675;" 
d="M734 555l-187 280q-6 9 -15.5 13t-19.5 4t-19.5 -4.5t-15.5 -13.5l-187 -279h-205q-17 0 -29.5 -12.5t-12.5 -30.5v-6t1 -6l109 -395q7 -27 29.5 -44.5t52.5 -17.5h554q30 0 52.5 17.5t30.5 44.5l108 395l1 12q0 18 -12.5 30.5t-29.5 12.5h-205v0zM384 555l128 187
l128 -187h-256v0zM512 213q-35 0 -60 25t-25 61q0 35 25 60t60 25t60 -25t25 -60q0 -36 -25 -61t-60 -25v0z" />
    <glyph glyph-name="uniE676" unicode="&#xe676;" 
d="M299 171q-36 0 -60.5 -25t-24.5 -61q0 -35 24.5 -60t60.5 -25q35 0 60 25t25 60q0 36 -25 61t-60 25v0zM43 853v-85h85l154 -324l-58 -104q-5 -9 -8 -19.5t-3 -21.5q0 -36 25 -61t61 -25h512v86h-494q-5 0 -8 3t-3 7l1 5l39 70h317q24 0 44 12t31 32l153 277q2 4 3.5 9.5
t1.5 10.5q0 18 -12.5 30.5t-30.5 12.5h-631l-40 85h-139v0zM725 171q-35 0 -60 -25t-25 -61q0 -35 25 -60t60 -25q36 0 61 25t25 60q0 36 -25 61t-61 25v0z" />
    <glyph glyph-name="uniE677" unicode="&#xe677;" 
d="M853 853h-682q-36 0 -60.5 -25t-24.5 -60l-1 -768l171 171h597q36 0 61 25t25 60v512q0 35 -25 60t-61 25v0zM341 341h-85v86h85v-86v0zM341 469h-85v86h85v-86v0zM341 597h-85v86h85v-86v0zM640 341h-213v86h213v-86v0zM768 469h-341v86h341v-86v0zM768 597h-341v86h341
v-86v0z" />
    <glyph glyph-name="uniE678" unicode="&#xe678;" 
d="M531 256h89l-218 555h-79l-218 -555h89l48 128h241l48 -128v0zM274 469l89 236l88 -236h-177v0zM921 444l-345 -345l-157 157l-60 -60l217 -217l405 405l-60 60v0z" />
    <glyph glyph-name="uniE679" unicode="&#xe679;" 
d="M512 329l158 -116l-60 186l158 113h-194l-62 192l-62 -192h-194l158 -113l-60 -186z" />
    <glyph glyph-name="uniE67A" unicode="&#xe67a;" 
d="M512 853q-89 0 -166.5 -33.5t-135.5 -91.5t-91.5 -135.5t-33.5 -165.5q0 -89 33.5 -166.5t91.5 -135.5t135.5 -91.5t166.5 -33.5q88 0 166 33.5t136 91.5t91.5 135.5t33.5 166.5q0 88 -33.5 165.5t-91.5 135.5t-136 91.5t-166 33.5v0zM692 171l-180 108l-180 -108l47 205
l-159 138l210 18l82 193l82 -193l210 -18l-159 -138l47 -205v0z" />
    <glyph glyph-name="uniE67B" unicode="&#xe67b;" 
d="M853 768h-682v-85h682v85v0zM896 341v86l-43 213h-682l-43 -213v-86h43v-256h426v256h171v-256h85v256h43v0zM512 171h-256v170h256v-170v0z" />
    <glyph glyph-name="uniE67C" unicode="&#xe67c;" 
d="M597 213h-426v-85h426v85v0zM853 555h-682v-86h682v86v0zM171 299h682v85h-682v-85v0zM171 725v-85h682v85h-682v0z" />
    <glyph glyph-name="uniE67D" unicode="&#xe67d;" 
d="M704 427q44 0 75 31t31 75t-31 75.5t-75 31.5t-75.5 -31.5t-31.5 -75.5t31.5 -75t75.5 -31v0zM384 469q53 0 90.5 37.5t37.5 90.5t-37.5 90.5t-90.5 37.5t-90.5 -37.5t-37.5 -90.5t37.5 -90.5t90.5 -37.5v0zM704 341q-29 0 -69.5 -7t-77 -22t-62.5 -37t-26 -51v-96h470
v96q0 29 -26 51t-62.5 37t-77 22t-69.5 7v0zM384 384q-37 0 -88.5 -9.5t-98 -28t-79.5 -46.5t-33 -65v-107h299v96q0 27 18 69.5t83 78.5q-28 6 -54 9t-47 3v0z" />
    <glyph glyph-name="uniE67E" unicode="&#xe67e;" 
d="M298 469l-170 -170l170 -171v128h299v85h-299v128v0zM896 555l-170 170v-128h-299v-85h299v-128l170 171v0z" />
    <glyph glyph-name="uniE67F" unicode="&#xe67f;" 
d="M512 853q-88 0 -166 -33.5t-136 -91.5t-91.5 -135.5t-33.5 -165.5q0 -89 33.5 -166.5t91.5 -135.5t136 -91.5t166 -33.5t166 33.5t136 91.5t91.5 135.5t33.5 166.5q0 88 -33.5 165.5t-91.5 135.5t-136 91.5t-166 33.5v0zM277 555l150 149l149 -149h-107v-171h-85v171
h-107v0zM747 299l-150 -150l-149 150h107v170h85v-170h107v0z" />
    <glyph glyph-name="uniE680" unicode="&#xe680;" 
d="M683 213v299h-86v-299h-128l171 -170l171 170h-128v0zM384 811l-171 -171h128v-299h86v299h128l-171 171v0z" />
    <glyph glyph-name="uniE681" unicode="&#xe681;" 
d="M512 235l171 170h-128v384h-86v-384h-128l171 -170v0zM896 789h-256v-85h256v-598h-768v598h256v85h-256q-35 0 -60 -25t-25 -60v-597q0 -36 25 -61t60 -25h768q35 0 60 25t25 61v597q0 35 -25 60t-60 25v0z" />
    <glyph glyph-name="uniE682" unicode="&#xe682;" 
d="M43 555h85v85h-85v-85v0zM43 384h85v85h-85v-85v0zM43 725h85v86q-35 0 -60 -25t-25 -61v0zM384 43h85v85h-85v-85v0zM43 213h85v86h-85v-86v0zM128 43v85h-85q0 -35 25 -60t60 -25v0zM896 811h-341v-256h426v170q0 36 -25 61t-60 25v0zM896 213h85v86h-85v-86v0z
M384 725h85v86h-85v-86v0zM213 43h86v85h-86v-85v0zM213 725h86v86h-86v-86v0zM896 43q35 0 60 25t25 60h-85v-85v0zM896 384h85v85h-85v-85v0zM555 43h85v85h-85v-85v0zM725 43h86v85h-86v-85v0z" />
    <glyph glyph-name="uniE683" unicode="&#xe683;" 
d="M896 811h-768q-35 0 -60 -25t-25 -61v-597q0 -35 25 -60t60 -25h768q35 0 60 25t25 60v597q0 36 -25 61t-60 25v0zM896 128h-768v597h427v-170h341v-427v0z" />
    <glyph glyph-name="uniE684" unicode="&#xe684;" 
d="M768 811v-86h-85v86h-342v-86h-85v86h-85v-768h85v85h85v-85h342v85h85v-85h85v768h-85v0zM341 213h-85v86h85v-86v0zM341 384h-85v85h85v-85v0zM341 555h-85v85h85v-85v0zM768 213h-85v86h85v-86v0zM768 384h-85v85h85v-85v0zM768 555h-85v85h85v-85v0z" />
    <glyph glyph-name="uniE685" unicode="&#xe685;" 
d="M640 811h-384q-27 0 -48 -14.5t-31 -37.5l-128 -301q-3 -8 -4.5 -15.5t-1.5 -15.5v-82v0v-4q0 -35 25 -60t60 -25h269l-40 -195l-2 -14q0 -13 5.5 -24.5t13.5 -20.5l45 -45l282 282q11 11 17.5 26.5t6.5 33.5v426q0 36 -25 61t-60 25v0zM811 811v-512h170v512h-170v0z
" />
    <glyph glyph-name="uniE686" unicode="&#xe686;" 
d="M43 43h170v512h-170v-512v0zM981 512q0 35 -25 60t-60 25h-269l40 195l2 14q0 13 -5.5 25t-13.5 20l-45 45l-281 -281q-12 -12 -18.5 -27.5t-6.5 -32.5v-427q0 -35 25 -60t60 -25h384q27 0 48 14.5t31 37.5l128 301q3 7 4.5 14.5t1.5 16.5v81v1v3v0z" />
    <glyph glyph-name="uniE687" unicode="&#xe687;" 
d="M512 683q0 17 -12.5 29.5t-30.5 12.5h-221l28 136l1 10q0 10 -3.5 18.5t-10.5 15.5l-33 34l-211 -211q-9 -9 -14 -20.5t-5 -24.5v-278q0 -26 18.5 -45t45.5 -19h288q20 0 36 11t23 28l96 226q3 5 4 11t1 12v54v0zM960 512h-288q-20 0 -36 -11t-23 -28l-96 -226
q-3 -5 -4 -11t-1 -12v-53q0 -18 12.5 -30.5t30.5 -12.5h221l-28 -136l-1 -10q0 -10 3.5 -18.5t10.5 -15.5l33 -33l211 210q9 9 14 21t5 25v277q0 27 -18.5 45.5t-45.5 18.5v0z" />
    <glyph glyph-name="uniE688" unicode="&#xe688;" 
d="M128 555h597v85h-597v-85v0zM128 384h597v85h-597v-85v0zM128 213h597v86h-597v-86v0zM811 213h85v86h-85v-86v0zM811 640v-85h85v85h-85v0zM811 384h85v85h-85v-85v0z" />
    <glyph glyph-name="uniE689" unicode="&#xe689;" 
d="M811 811h-43v85h-85v-85h-342v85h-85v-85h-43q-35 0 -60 -25t-25 -61v-597q0 -35 25 -60t60 -25h598q35 0 60 25t25 60v597q0 36 -25 61t-60 25v0zM811 128h-598v469h598v-469v0zM299 512h213v-213h-213v213z" />
    <glyph glyph-name="uniE68A" unicode="&#xe68a;" 
d="M814 728l-61 -60q47 -46 73.5 -108.5t26.5 -132.5q0 -71 -26.5 -133t-73 -108.5t-108.5 -73.5t-133 -27t-133 27t-108.5 73.5t-73 108.5t-26.5 133q0 65 23 123t63 103t94.5 74.5t117.5 37.5v-86q-45 -8 -84 -30.5t-67.5 -56t-45 -76t-16.5 -89.5q0 -53 20 -100t55 -81.5
t81.5 -54.5t99.5 -20t99.5 20t81.5 54.5t55 81.5t20 100t-20 99.5t-55 81.5l-60 -61q23 -23 36.5 -54t13.5 -66q0 -71 -50 -121t-121 -50t-121 50t-50 121q0 59 36.5 104.5t91.5 59.5v-91q-19 -11 -30.5 -30.5t-11.5 -42.5q0 -36 25 -61t60 -25t60 25t25 61q0 23 -11.5 42.5
t-30.5 30.5v353h-43q-88 0 -166 -33.5t-136 -91.5t-91.5 -135.5t-33.5 -165.5q0 -89 33.5 -166.5t91.5 -135.5t136 -91.5t166 -33.5t166 33.5t136 91.5t91.5 135.5t33.5 166.5q0 44 -9 85.5t-25 80t-39 72.5t-52 63v0z" />
    <glyph glyph-name="uniE68B" unicode="&#xe68b;" 
d="M549 296l-108 107l1 1q28 31 52 64.5t43.5 68.5t35.5 71.5t27 74.5h125v85h-298v85h-86v-85h-298v-85h476q-21 -62 -55 -119.5t-80 -109.5q-30 33 -54.5 69t-44.5 74h-85q23 -52 55 -101t72 -93l-217 -214l61 -61l213 213l133 -132l32 87v0zM789 512h-85l-192 -512h85
l48 128h203l48 -128h85l-192 512v0zM678 213l69 185l69 -185h-138v0z" />
    <glyph glyph-name="uniE68C" unicode="&#xe68c;" 
d="M683 171l97 97l-208 209l-171 -171l-316 317l60 60l256 -256l171 170l269 -268l98 98v-256h-256z" />
    <glyph glyph-name="uniE68D" unicode="&#xe68d;" 
d="M939 427l-171 170v-128h-640v-85h640v-128z" />
    <glyph glyph-name="uniE68E" unicode="&#xe68e;" 
d="M683 683l97 -98l-208 -208l-171 170l-316 -316l60 -60l256 256l171 -171l269 268l98 -97v256h-256z" />
    <glyph glyph-name="uniE68F" unicode="&#xe68f;" 
d="M725 811h-426q-36 0 -60.5 -25t-24.5 -61l-1 -682l299 128l299 -128v682q0 36 -25 61t-61 25v0zM725 171l-213 93l-213 -93v554h426v-554v0z" />
    <glyph glyph-name="uniE690" unicode="&#xe690;" 
d="M725 811h-426q-36 0 -60.5 -25t-24.5 -61l-1 -682l299 128l299 -128v682q0 36 -25 61t-61 25v0z" />
    <glyph glyph-name="uniE691" unicode="&#xe691;" 
d="M512 896l-384 -171v-256q0 -88 29 -172t80.5 -152.5t121.5 -118t153 -69.5q83 20 153 69.5t121.5 118t80.5 152.5t29 172v256l-384 171v0zM427 213l-171 171l60 60l111 -110l281 281l60 -60l-341 -342v0z" />
    <glyph glyph-name="uniE692" unicode="&#xe692;" 
d="M853 384h-725q-18 0 -30.5 -12.5t-12.5 -30.5v-256q0 -17 12.5 -29.5t30.5 -12.5h725q18 0 30.5 12.5t12.5 29.5v256q0 18 -12.5 30.5t-30.5 12.5v0zM853 811h-725q-18 0 -30.5 -12.5t-12.5 -30.5v-256q0 -18 12.5 -30.5t30.5 -12.5h725q18 0 30.5 12.5t12.5 30.5v256
q0 18 -12.5 30.5t-30.5 12.5v0z" />
    <glyph glyph-name="uniE693" unicode="&#xe693;" 
d="M171 171h128v554h-128v-554v0zM768 725v-554h128v554h-128v0zM341 171h384v554h-384v-554v0z" />
    <glyph glyph-name="uniE694" unicode="&#xe694;" 
d="M299 128h426v640h-426v-640v0zM85 213h171v470h-171v-470v0zM768 683v-470h171v470h-171v0z" />
    <glyph glyph-name="uniE695" unicode="&#xe695;" 
d="M427 171h213v554h-213v-554v0zM171 171h213v554h-213v-554v0zM683 725v-554h213v554h-213v0z" />
    <glyph glyph-name="uniE696" unicode="&#xe696;" 
d="M85 43h811v128h-811v-128v0zM853 597h-725q-18 0 -30.5 -12.5t-12.5 -29.5v-256q0 -18 12.5 -30.5t30.5 -12.5h725q18 0 30.5 12.5t12.5 30.5v256q0 17 -12.5 29.5t-30.5 12.5v0zM85 811v-128h811v128h-811v0z" />
    <glyph glyph-name="uniE697" unicode="&#xe697;" 
d="M171 299h725v85h-725v-85v0zM171 128h725v85h-725v-85v0zM171 469h725v86h-725v-86v0zM171 725v-85h725v85h-725v0z" />
    <glyph glyph-name="uniE698" unicode="&#xe698;" 
d="M171 341h170v171h-170v-171v0zM171 128h170v171h-170v-171v0zM171 555h170v170h-170v-170v0zM384 341h512v171h-512v-171v0zM384 128h512v171h-512v-171v0zM384 725v-170h512v170h-512v0z" />
    <glyph glyph-name="uniE699" unicode="&#xe699;" 
d="M171 469h213v256h-213v-256v0zM171 171h213v256h-213v-256v0zM427 171h213v256h-213v-256v0zM683 171h213v256h-213v-256v0zM427 469h213v256h-213v-256v0zM683 725v-256h213v256h-213v0z" />
    <glyph glyph-name="uniE69A" unicode="&#xe69a;" 
d="M427 171h213v256h-213v-256v0zM171 171h213v554h-213v-554v0zM683 171h213v256h-213v-256v0zM427 725v-256h469v256h-469v0z" />
    <glyph glyph-name="uniE69B" unicode="&#xe69b;" 
d="M171 171h725v256h-725v-256v0zM171 725v-256h725v256h-725v0z" />
    <glyph glyph-name="uniE69C" unicode="&#xe69c;" 
d="M256 725h-128q-18 0 -30.5 -12.5t-12.5 -29.5v-512q0 -18 12.5 -30.5t30.5 -12.5h128q18 0 30.5 12.5t12.5 30.5v512q0 17 -12.5 29.5t-30.5 12.5v0zM853 725h-128q-17 0 -29.5 -12.5t-12.5 -29.5v-512q0 -18 12.5 -30.5t29.5 -12.5h128q18 0 30.5 12.5t12.5 30.5v512
q0 17 -12.5 29.5t-30.5 12.5v0zM555 725h-128q-18 0 -30.5 -12.5t-12.5 -29.5v-512q0 -18 12.5 -30.5t30.5 -12.5h128q17 0 29.5 12.5t12.5 30.5v512q0 17 -12.5 29.5t-29.5 12.5v0z" />
    <glyph glyph-name="uniE69D" unicode="&#xe69d;" 
d="M512 640q44 0 83 -17t68 -45.5t45.5 -67.5t16.5 -83q0 -21 -4 -40.5t-11 -37.5l125 -125q48 40 85.5 91.5t60.5 111.5q-28 70 -74.5 128.5t-108 101t-134 66.5t-152.5 24q-45 0 -88 -8t-82 -22l92 -92q18 7 37.5 11t40.5 4v0zM85 756l117 -116q-53 -42 -93.5 -96
t-65.5 -117q27 -71 74 -129.5t108 -101t134 -66t153 -23.5q50 0 97 9t90 27l18 -18l125 -125l54 54l-756 757l-55 -55v0zM321 521l66 -67q-1 -6 -2 -13t-1 -14q0 -53 37.5 -90.5t90.5 -37.5q7 0 14 0.5t14 2.5l66 -66q-22 -11 -45.5 -17t-48.5 -6q-44 0 -83 17t-68 46
t-45.5 68t-16.5 83q0 25 6 48.5t16 45.5v0zM505 554l135 -135v7q0 53 -37 90.5t-91 37.5h-7v0z" />
    <glyph glyph-name="uniE69E" unicode="&#xe69e;" 
d="M512 747q-80 0 -153 -24t-134 -66.5t-108 -101t-74 -128.5q27 -71 74 -129.5t108 -101t134 -66t153 -23.5t153 23.5t134 66t108 101t74 129.5q-27 70 -74 128.5t-108 101t-134 66.5t-153 24v0zM512 213q-44 0 -83 17t-68 46t-45.5 68t-16.5 83t16.5 83t45.5 67.5t68 45.5
t83 17t83 -17t68 -45.5t45.5 -67.5t16.5 -83t-16.5 -83t-45.5 -68t-68 -46t-83 -17v0zM512 555q-53 0 -90.5 -37.5t-37.5 -90.5t37.5 -90.5t90.5 -37.5t90.5 37.5t37.5 90.5t-37.5 90.5t-90.5 37.5v0z" />
    <glyph glyph-name="uniE69F" unicode="&#xe69f;" 
d="M853 683h-93q4 10 6 20.5t2 21.5q0 53 -37.5 90.5t-90.5 37.5q-34 0 -61.5 -15.5t-45.5 -41.5l-21 -29l-21 29q-18 26 -45.5 41.5t-61.5 15.5q-53 0 -90.5 -37.5t-37.5 -90.5q0 -11 2 -21.5t6 -20.5h-93q-36 0 -60.5 -25t-24.5 -61l-1 -469q0 -36 25 -60.5t61 -24.5h682
q36 0 61 24.5t25 60.5v469q0 36 -25 61t-61 25v0zM640 768q18 0 30.5 -12.5t12.5 -30.5q0 -17 -12.5 -29.5t-30.5 -12.5t-30.5 12.5t-12.5 29.5q0 18 12.5 30.5t30.5 12.5v0zM384 768q18 0 30.5 -12.5t12.5 -30.5q0 -17 -12.5 -29.5t-30.5 -12.5t-30.5 12.5t-12.5 29.5
q0 18 12.5 30.5t30.5 12.5v0zM853 128h-682v85h682v-85v0zM853 341h-682v256h216l-88 -120l69 -50l144 196l144 -196l69 50l-88 120h216v-256v0z" />
    <glyph glyph-name="uniE6A0" unicode="&#xe6a0;" 
d="M853 853h-682q-36 0 -61 -24.5t-25 -60.5v-469q0 -36 25 -61t61 -25h170v-213l171 85l171 -85v213h170q36 0 61 25t25 61v469q0 36 -25 60.5t-61 24.5v0zM853 299h-682v85h682v-85v0zM853 512h-682v256h682v-256v0z" />
    <glyph glyph-name="uniE6A1" unicode="&#xe6a1;" 
d="M853 683h-128v85q0 36 -24.5 60.5t-60.5 24.5h-256q-36 0 -60.5 -24.5t-24.5 -60.5v-85h-128q-36 0 -61 -25t-25 -61v-469q0 -36 25 -60.5t61 -24.5h682q36 0 61 24.5t25 60.5v469q0 36 -25 61t-61 25v0zM384 768h256v-85h-256v85v0zM853 128h-682v85h682v-85v0zM853 341
h-682v256h128v-85h85v85h256v-85h85v85h128v-256v0z" />
    <glyph glyph-name="uniE6A2" unicode="&#xe6a2;" 
d="M853 683h-170v85q0 36 -25 60.5t-61 24.5h-170q-36 0 -61 -24.5t-25 -60.5v-85h-170q-36 0 -60.5 -25t-24.5 -61l-1 -469q0 -36 25 -60.5t61 -24.5h682q36 0 61 24.5t25 60.5v469q0 36 -25 61t-61 25v0zM597 683h-170v85h170v-85v0z" />
    <glyph glyph-name="uniE6A3" unicode="&#xe6a3;" 
d="M512 853q-88 0 -166 -33.5t-136 -91.5t-91.5 -135.5t-33.5 -165.5q0 -89 33.5 -166.5t91.5 -135.5t136 -91.5t166 -33.5t166 33.5t136 91.5t91.5 135.5t33.5 166.5q0 88 -33.5 165.5t-91.5 135.5t-136 91.5t-166 33.5v0zM555 213h-86v86h86v-86v0zM555 384h-86v256h86
v-256v0z" />
    <glyph glyph-name="uniE6A4" unicode="&#xe6a4;" 
d="M43 43h938l-469 810l-469 -810v0zM555 171h-86v85h86v-85v0zM555 341h-86v171h86v-171v0z" />
    <glyph glyph-name="uniE6A5" unicode="&#xe6a5;" 
d="M512 853q-88 0 -166 -33.5t-136 -91.5t-91.5 -135.5t-33.5 -165.5q0 -89 33.5 -166.5t91.5 -135.5t136 -91.5t166 -33.5t166 33.5t136 91.5t91.5 135.5t33.5 166.5q0 88 -33.5 165.5t-91.5 135.5t-136 91.5t-166 33.5v0zM512 235q-80 0 -136 56t-56 136q0 79 56 135.5
t136 56.5t136 -56.5t56 -135.5q0 -80 -56 -136t-136 -56v0zM512 469q-18 0 -30.5 -12.5t-12.5 -29.5q0 -18 12.5 -30.5t30.5 -12.5t30.5 12.5t12.5 30.5q0 17 -12.5 29.5t-30.5 12.5v0z" />
    <glyph glyph-name="uniE6A6" unicode="&#xe6a6;" 
d="M811 768h-598q-35 0 -60 -25t-25 -60v-512q0 -36 25 -61t60 -25h598q35 0 60 25t25 61v512q0 35 -25 60t-60 25v0zM469 469h-64v22h-85v-128h85v21h64v-43q0 -17 -12.5 -29.5t-29.5 -12.5h-128q-18 0 -30.5 12.5t-12.5 29.5v171q0 18 12.5 30.5t30.5 12.5h128
q17 0 29.5 -12.5t12.5 -30.5v-43v0zM768 469h-64v22h-85v-128h85v21h64v-43q0 -17 -12.5 -29.5t-30.5 -12.5h-128q-17 0 -29.5 12.5t-12.5 29.5v171q0 18 12.5 30.5t29.5 12.5h128q18 0 30.5 -12.5t12.5 -30.5v-43v0z" />
    <glyph glyph-name="uniE6A7" unicode="&#xe6a7;" 
d="M427 85h170v683h-170v-683v0zM171 85h170v342h-170v-342v0zM683 555v-470h170v470h-170v0z" />
    <glyph glyph-name="uniE6A8" unicode="&#xe6a8;" 
d="M811 811h-598q-35 0 -60 -25t-25 -61v-597q0 -35 25 -60t60 -25h598q35 0 60 25t25 60v597q0 36 -25 61t-60 25v0zM640 555h-171v-86h171v-85h-171v-85h171v-86h-256v427h256v-85v0z" />
    <glyph glyph-name="uniE6A9" unicode="&#xe6a9;" 
d="M171 171l362 256l-362 256v-512v0zM555 683v-512l362 256l-362 256v0z" />
    <glyph glyph-name="uniE6AA" unicode="&#xe6aa;" 
d="M469 171v512l-362 -256l362 -256v0zM491 427l362 -256v512l-362 -256v0z" />
    <glyph glyph-name="uniE6AB" unicode="&#xe6ab;" 
d="M640 619v234h-256v-234l128 -128l128 128v0zM320 555h-235v-256h235l128 128l-128 128v0zM384 235v-235h256v235l-128 128l-128 -128v0zM704 555l-128 -128l128 -128h235v256h-235v0z" />
    <glyph glyph-name="uniE6AC" unicode="&#xe6ac;" 
d="M725 85q-9 0 -17.5 2t-14.5 5q-23 12 -40 32.5t-33 68.5q-16 50 -44.5 78t-57.5 50q-25 20 -50.5 43.5t-48.5 64.5q-17 31 -26 63.5t-9 62.5q0 44 16.5 83t45.5 68t68 45.5t83 16.5q45 0 84 -16.5t68 -45.5t45.5 -68t16.5 -83h85q0 63 -23 117.5t-63.5 94.5t-95 63
t-117.5 23t-117.5 -23t-94.5 -63t-63 -94.5t-23 -117.5q0 -41 11.5 -84t33.5 -83q29 -53 61.5 -83t60.5 -51q26 -20 44.5 -38t28.5 -50q19 -58 46 -93t70 -58q17 -7 34.5 -11t35.5 -4q71 0 121 50t50 121h-85q0 -36 -25 -61t-61 -25v0zM326 826l-61 61q-31 -32 -56.5 -69.5
t-43.5 -80t-27.5 -88.5t-9.5 -94q0 -49 9.5 -95t27.5 -88t43.5 -79.5t56.5 -69.5l61 60q-52 52 -82.5 122t-30.5 150q0 79 30.5 149t82.5 122v0zM491 555q0 -44 31 -75.5t75 -31.5t75.5 31.5t31.5 75.5t-31.5 75t-75.5 31t-75 -31t-31 -75v0z" />
    <glyph glyph-name="uniE6AD" unicode="&#xe6ad;" 
d="M811 768h-598q-35 0 -60 -25t-25 -60v-512q0 -36 25 -61t60 -25h598q35 0 60 25t25 61v512q0 35 -25 60t-60 25v0zM469 299h-64v85h-85v-85h-64v256h64v-107h85v107h64v-256v0zM768 341q0 -17 -12.5 -29.5t-30.5 -12.5h-32v-64h-64v64h-32q-17 0 -29.5 12.5t-12.5 29.5
v171q0 18 12.5 30.5t29.5 12.5h128q18 0 30.5 -12.5t12.5 -30.5v-171v0zM619 363h85v128h-85v-128v0z" />
    <glyph glyph-name="uniE6AE" unicode="&#xe6ae;" 
d="M512 768v128l-171 -171l171 -170v128q53 0 99.5 -20.5t81.5 -55t55 -81t20 -99.5q0 -33 -7.5 -63t-22.5 -57l62 -62q25 39 39 85t14 97q0 70 -26.5 132.5t-73 108.5t-108.5 73t-133 27v0zM512 171q-53 0 -99.5 20t-81.5 54.5t-55 81.5t-20 100q0 32 7.5 62.5t22.5 56.5
l-62 62q-25 -39 -39 -85t-14 -96q0 -71 26.5 -133t73 -108.5t108.5 -73.5t133 -27v-128l171 171l-171 171v-128v0z" />
    <glyph glyph-name="uniE6AF" unicode="&#xe6af;" 
d="M512 341q53 0 90.5 37.5t37.5 90.5v256q0 53 -37.5 90.5t-90.5 37.5t-90.5 -37.5t-37.5 -90.5v-256q0 -53 37.5 -90.5t90.5 -37.5v0zM461 730q0 21 15 36t36 15t36 -15t15 -36v-265q0 -21 -15 -36t-36 -15t-36 15t-15 36v265v0zM738 469q0 -48 -18.5 -88t-50 -68.5
t-72.5 -44.5t-85 -16t-85 16t-72.5 44.5t-50 68.5t-18.5 88h-73q0 -54 20.5 -103t55.5 -87t81.5 -63.5t98.5 -32.5v-140h86v140q52 7 98.5 32.5t81.5 63.5t55.5 87t20.5 103h-73v0z" />
    <glyph glyph-name="uniE6B0" unicode="&#xe6b0;" 
d="M811 469h-73q0 -23 -5 -45t-13 -42l52 -53q18 32 28.5 67t10.5 73v0zM639 462q0 2 0.5 3.5t0.5 3.5v256q0 53 -37.5 90.5t-90.5 37.5t-90.5 -37.5t-37.5 -90.5v-7l255 -256v0zM182 811l-54 -55l256 -256v-31q0 -53 37.5 -90.5t90.5 -37.5q7 0 14 1t14 3l71 -71
q-23 -11 -48 -16.5t-51 -5.5q-44 0 -85 16t-72.5 44.5t-50 68.5t-18.5 88h-73q0 -54 20.5 -103t55.5 -87t81.5 -63.5t98.5 -32.5v-140h86v140q29 4 56 14t52 24l179 -178l54 54l-714 714v0z" />
    <glyph glyph-name="uniE6B1" unicode="&#xe6b1;" 
d="M512 341q53 0 90.5 37.5t37.5 90.5v256q0 53 -37.5 90.5t-90.5 37.5t-90.5 -37.5t-37.5 -90.5v-256q0 -53 37.5 -90.5t90.5 -37.5v0zM738 469q0 -48 -18.5 -88t-50 -68.5t-72.5 -44.5t-85 -16t-85 16t-72.5 44.5t-50 68.5t-18.5 88h-73q0 -54 20.5 -103t55.5 -87
t81.5 -63.5t98.5 -32.5v-140h86v140q52 7 98.5 32.5t81.5 63.5t55.5 87t20.5 103h-73v0z" />
    <glyph glyph-name="uniE6B2" unicode="&#xe6b2;" 
d="M768 768l85 -171h-128l-85 171h-85l85 -171h-128l-85 171h-86l86 -171h-128l-86 171h-42q-36 0 -60.5 -25t-24.5 -60l-1 -512q0 -36 25 -61t61 -25h682q36 0 61 25t25 61v597h-171v0z" />
    <glyph glyph-name="uniE6B3" unicode="&#xe6b3;" 
d="M171 683h-86v-598q0 -35 25 -60t61 -25h597v85h-597v598v0zM853 853h-512q-35 0 -60 -25t-25 -60v-512q0 -35 25 -60t60 -25h512q36 0 61 25t25 60v512q0 35 -25 60t-61 25v0zM811 469h-171v-170h-85v170h-171v86h171v170h85v-170h171v-86v0z" />
    <glyph glyph-name="uniE6B4" unicode="&#xe6b4;" 
d="M171 683h-86v-598q0 -35 25 -60t61 -25h597v85h-597v598v0zM853 853h-512q-35 0 -60 -25t-25 -60v-512q0 -35 25 -60t60 -25h512q36 0 61 25t25 60v512q0 35 -25 60t-61 25v0zM811 469h-427v86h427v-86v0zM640 299h-256v85h256v-85v0zM811 640h-427v85h427v-85v0z" />
    <glyph glyph-name="uniE6B5" unicode="&#xe6b5;" 
d="M853 853h-512q-35 0 -60 -25t-25 -60v-512q0 -35 25 -60t60 -25h512q36 0 61 25t25 60v512q0 35 -25 60t-61 25v0zM768 640h-128v-235q0 -44 -31.5 -75t-75.5 -31t-75 31t-31 75t31 75.5t75 31.5q19 0 35 -6t29 -16v235h171v-85v0zM171 683h-86v-598q0 -35 25 -60t61 -25
h597v85h-597v598v0z" />
    <glyph glyph-name="uniE6B6" unicode="&#xe6b6;" 
d="M981 427l-104 118l15 157l-154 35l-81 136l-145 -62l-145 62l-81 -136l-154 -34l15 -157l-104 -119l104 -119l-15 -157l154 -35l81 -136l145 63l145 -63l81 136l154 35l-15 157l104 119v0zM555 213h-86v86h86v-86v0zM555 384h-86v256h86v-256v0z" />
    <glyph glyph-name="uniE6B7" unicode="&#xe6b7;" 
d="M512 853q-88 0 -166 -33.5t-136 -91.5t-91.5 -135.5t-33.5 -165.5q0 -89 33.5 -166.5t91.5 -135.5t136 -91.5t166 -33.5t166 33.5t136 91.5t91.5 135.5t33.5 166.5q0 88 -33.5 165.5t-91.5 135.5t-136 91.5t-166 33.5v0zM512 85q-71 0 -133 27t-108.5 73.5t-73 108.5
t-26.5 133q0 59 19 112.5t53 96.5l478 -479q-43 -33 -96.5 -52.5t-112.5 -19.5v0zM781 218l-478 478q43 34 96.5 53t112.5 19q71 0 133 -27t108.5 -73t73 -108.5t26.5 -132.5q0 -60 -19 -113t-53 -96v0z" />
    <glyph glyph-name="uniE6B8" unicode="&#xe6b8;" 
d="M512 853q-88 0 -166 -33.5t-136 -91.5t-91.5 -135.5t-33.5 -165.5q0 -89 33.5 -166.5t91.5 -135.5t136 -91.5t166 -33.5t166 33.5t136 91.5t91.5 135.5t33.5 166.5q0 88 -33.5 165.5t-91.5 135.5t-136 91.5t-166 33.5v0zM469 256h-85v341h85v-341v0zM640 256h-85v341h85
v-341v0z" />
    <glyph glyph-name="uniE6B9" unicode="&#xe6b9;" 
d="M384 256h85v341h-85v-341v0zM512 853q-88 0 -166 -33.5t-136 -91.5t-91.5 -135.5t-33.5 -165.5q0 -89 33.5 -166.5t91.5 -135.5t136 -91.5t166 -33.5t166 33.5t136 91.5t91.5 135.5t33.5 166.5q0 88 -33.5 165.5t-91.5 135.5t-136 91.5t-166 33.5v0zM512 85
q-71 0 -133 27t-108.5 73.5t-73 108.5t-26.5 133q0 70 26.5 132.5t73 108.5t108.5 73t133 27t133 -27t108.5 -73t73 -108.5t26.5 -132.5q0 -71 -26.5 -133t-73 -108.5t-108.5 -73.5t-133 -27v0zM555 256h85v341h-85v-341v0z" />
    <glyph glyph-name="uniE6BA" unicode="&#xe6ba;" 
d="M256 128h171v597h-171v-597v0zM597 725v-597h171v597h-171v0z" />
    <glyph glyph-name="uniE6BB" unicode="&#xe6bb;" 
d="M341 725v-597l470 299z" />
    <glyph glyph-name="uniE6BC" unicode="&#xe6bc;" 
d="M512 853q-88 0 -166 -33.5t-136 -91.5t-91.5 -135.5t-33.5 -165.5q0 -89 33.5 -166.5t91.5 -135.5t136 -91.5t166 -33.5t166 33.5t136 91.5t91.5 135.5t33.5 166.5q0 88 -33.5 165.5t-91.5 135.5t-136 91.5t-166 33.5v0zM427 235v384l256 -192l-256 -192v0z" />
    <glyph glyph-name="uniE6BD" unicode="&#xe6bd;" 
d="M427 235l256 192l-256 192v-384v0zM512 853q-88 0 -166 -33.5t-136 -91.5t-91.5 -135.5t-33.5 -165.5q0 -89 33.5 -166.5t91.5 -135.5t136 -91.5t166 -33.5t166 33.5t136 91.5t91.5 135.5t33.5 166.5q0 88 -33.5 165.5t-91.5 135.5t-136 91.5t-166 33.5v0zM512 85
q-71 0 -133 27t-108.5 73.5t-73 108.5t-26.5 133q0 70 26.5 132.5t73 108.5t108.5 73t133 27t133 -27t108.5 -73t73 -108.5t26.5 -132.5q0 -71 -26.5 -133t-73 -108.5t-108.5 -73.5t-133 -27v0z" />
    <glyph glyph-name="uniE6BE" unicode="&#xe6be;" 
d="M683 683v85q0 36 -25 60.5t-61 24.5h-170q-36 0 -61 -24.5t-25 -60.5v-85h-256v-555q0 -36 25 -60.5t61 -24.5h682q36 0 61 24.5t25 60.5v555h-256v0zM427 768h170v-85h-170v85v0zM384 171v384l320 -171l-320 -213v0z" />
    <glyph glyph-name="uniE6BF" unicode="&#xe6bf;" 
d="M597 512h-512v-85h512v85v0zM597 683h-512v-86h512v86v0zM768 341v171h-85v-171h-171v-85h171v-171h85v171h171v85h-171v0zM85 256h342v85h-342v-85v0z" />
    <glyph glyph-name="uniE6C0" unicode="&#xe6c0;" 
d="M640 683h-512v-86h512v86v0zM640 512h-512v-85h512v85v0zM128 256h341v85h-341v-85v0zM725 683v-349q-10 3 -20.5 5t-21.5 2q-53 0 -90.5 -37.5t-37.5 -90.5t37.5 -90.5t90.5 -37.5t90.5 37.5t37.5 90.5v384h128v86h-214v0z" />
    <glyph glyph-name="uniE6C1" unicode="&#xe6c1;" 
d="M171 683h-86v-598q0 -35 25 -60t61 -25h597v85h-597v598v0zM853 853h-512q-35 0 -60 -25t-25 -60v-512q0 -35 25 -60t60 -25h512q36 0 61 25t25 60v512q0 35 -25 60t-61 25v0zM811 469h-171v-170h-85v170h-171v86h171v170h85v-170h171v-86v0z" />
    <glyph glyph-name="uniE6C2" unicode="&#xe6c2;" 
d="M138 676q-23 -9 -38 -30.5t-15 -48.5v-512q0 -35 25 -60t61 -25h682q36 0 61 25t25 60v512q0 36 -25 61t-61 25h-499l353 142l-29 71l-540 -220v0zM299 85q-53 0 -90.5 37.5t-37.5 90.5t37.5 90.5t90.5 37.5t90.5 -37.5t37.5 -90.5t-37.5 -90.5t-90.5 -37.5v0zM853 427
h-85v85h-85v-85h-512v170h682v-170v0z" />
    <glyph glyph-name="uniE6C3" unicode="&#xe6c3;" 
d="M896 725v-597h85v597h-85v0zM725 128h86v597h-86v-597v0zM597 725h-512q-17 0 -29.5 -12.5t-12.5 -29.5v-512q0 -18 12.5 -30.5t29.5 -12.5h512q18 0 30.5 12.5t12.5 30.5v512q0 17 -12.5 29.5t-30.5 12.5v0zM341 608q40 0 68 -28t28 -68t-28 -68t-68 -28q-39 0 -67.5 28
t-28.5 68t28.5 68t67.5 28v0zM533 213h-384v32q0 48 72 72t120 24t120 -24t72 -72v-32v0z" />
    <glyph glyph-name="uniE6C4" unicode="&#xe6c4;" 
d="M299 640h426v-128l171 171l-171 170v-128h-512v-256h86v171v0zM725 213h-426v128l-171 -170l171 -171v128h512v256h-86v-171v0zM555 299v256h-43l-85 -43v-43h64v-170h64v0z" />
    <glyph glyph-name="uniE6C5" unicode="&#xe6c5;" 
d="M299 640h426v-128l171 171l-171 170v-128h-512v-256h86v171v0zM725 213h-426v128l-171 -170l171 -171v128h512v256h-86v-171v0z" />
    <glyph glyph-name="uniE6C6" unicode="&#xe6c6;" 
d="M512 725v171l-213 -213l213 -214v171q53 0 99.5 -20t81.5 -55t55 -81.5t20 -99.5t-20 -99.5t-55 -81.5t-81.5 -55t-99.5 -20t-99.5 20t-81.5 55t-55 81.5t-20 99.5h-85q0 -71 26.5 -133t73 -108.5t108.5 -73t133 -26.5t133 26.5t108.5 73t73 108.5t26.5 133t-26.5 133
t-73 108.5t-108.5 73t-133 26.5v0z" />
    <glyph glyph-name="uniE6C7" unicode="&#xe6c7;" 
d="M452 547l-221 221l-60 -60l220 -221l61 60v0zM619 768l87 -87l-535 -536l60 -60l535 535l87 -87v235h-234v0zM633 367l-60 -61l133 -133l-87 -88h234v235l-87 -87l-133 134v0z" />
    <glyph glyph-name="uniE6C8" unicode="&#xe6c8;" 
d="M256 171l363 256l-363 256v-512v0zM683 683v-512h85v512h-85v0z" />
    <glyph glyph-name="uniE6C9" unicode="&#xe6c9;" 
d="M256 683h85v-512h-85v512zM405 427l363 -256v512z" />
    <glyph glyph-name="uniE6CA" unicode="&#xe6ca;" 
d="M336 794l-54 65l-197 -164l55 -65l196 164v0zM939 695l-197 164l-55 -65l197 -165l55 66v0zM512 768q-80 0 -149.5 -30t-122 -82.5t-82.5 -122t-30 -149.5t30 -149.5t82 -122t122 -82.5t150 -30t149.5 30t122 82.5t82.5 122t30 149.5t-30 149.5t-82.5 122t-122 82.5
t-149.5 30v0zM512 85q-62 0 -116.5 23.5t-95 64t-64 95t-23.5 116.5t23.5 116.5t64 95t95 64t116.5 23.5t116.5 -23.5t95 -64t64 -95t23.5 -116.5t-23.5 -116.5t-64 -95t-95 -64t-116.5 -23.5v0zM384 469h155l-155 -179v-77h256v86h-155l155 179v77h-256v-86v0z" />
    <glyph glyph-name="uniE6CB" unicode="&#xe6cb;" 
d="M256 683h512v-512h-512v512z" />
    <glyph glyph-name="uniE6CC" unicode="&#xe6cc;" 
d="M853 768h-682q-36 0 -61 -25t-25 -60v-512q0 -36 25 -61t61 -25h682q36 0 61 25t25 61v512q0 35 -25 60t-61 25v0zM171 427h170v-86h-170v86v0zM597 171h-426v85h426v-85v0zM853 171h-170v85h170v-85v0zM853 341h-426v86h426v-86v0z" />
    <glyph glyph-name="uniE6CD" unicode="&#xe6cd;" 
d="M853 768h-682q-36 0 -61 -25t-25 -60v-512q0 -36 25 -61t61 -25h682q36 0 61 25t25 61v512q0 35 -25 60t-61 25v0zM331 246l-60 -60q-50 49 -75 112t-25 129q0 65 25 128t75 113l60 -60q-37 -38 -56 -85t-19 -96q0 -50 19 -97t56 -84v0zM512 256q-71 0 -121 50t-50 121
q0 70 50 120t121 50t121 -50t50 -120q0 -71 -50 -121t-121 -50v0zM753 185l-60 60q37 38 56 85t19 97q0 49 -19 96t-56 85l60 60q50 -50 75 -113t25 -128q0 -66 -25 -129t-75 -113v0zM512 512q-35 0 -60 -25t-25 -60q0 -36 25 -61t60 -25t60 25t25 61q0 35 -25 60t-60 25v0z
" />
    <glyph glyph-name="uniE6CE" unicode="&#xe6ce;" 
d="M469 213q0 -17 12.5 -29.5t30.5 -12.5t30.5 12.5t12.5 29.5q0 18 -12.5 30.5t-30.5 12.5t-30.5 -12.5t-12.5 -30.5v0zM469 811v-171h86v82q54 -8 100.5 -34t81 -65t54.5 -89.5t20 -106.5q0 -62 -23.5 -116.5t-64 -95t-95 -64t-116.5 -23.5t-116.5 23.5t-95 64t-64 95
t-23.5 116.5q0 53 18 101.5t50 86.5l231 -231l60 60l-290 290v-1q-35 -26 -63.5 -59.5t-48.5 -72.5t-31 -83t-11 -91q0 -80 30 -150t82 -122t122 -82t150 -30t149.5 30t122 82t82.5 122t30 150q0 79 -30 149t-82.5 122t-122 82.5t-149.5 30.5h-43v0zM768 427
q0 17 -12.5 29.5t-30.5 12.5q-17 0 -29.5 -12.5t-12.5 -29.5q0 -18 12.5 -30.5t29.5 -12.5q18 0 30.5 12.5t12.5 30.5v0zM256 427q0 -18 12.5 -30.5t30.5 -12.5q17 0 29.5 12.5t12.5 30.5q0 17 -12.5 29.5t-29.5 12.5q-18 0 -30.5 -12.5t-12.5 -29.5v0z" />
    <glyph glyph-name="uniE6CF" unicode="&#xe6cf;" 
d="M171 683h-86v-598q0 -35 25 -60t61 -25h597v85h-597v598v0zM853 853h-512q-35 0 -60 -25t-25 -60v-512q0 -35 25 -60t60 -25h512q36 0 61 25t25 60v512q0 35 -25 60t-61 25v0zM512 320v384l256 -192l-256 -192v0z" />
    <glyph glyph-name="uniE6D0" unicode="&#xe6d0;" 
d="M896 661l-171 -170v149q0 18 -12.5 30.5t-29.5 12.5h-264l477 -477v455v0zM140 853l-55 -54l117 -116h-31q-18 0 -30.5 -12.5t-12.5 -30.5v-427q0 -17 12.5 -29.5t30.5 -12.5h512q6 0 12 2t11 5l136 -135l54 54l-756 756v0z" />
    <glyph glyph-name="uniE6D1" unicode="&#xe6d1;" 
d="M725 491v149q0 18 -12.5 30.5t-29.5 12.5h-512q-18 0 -30.5 -12.5t-12.5 -30.5v-427q0 -17 12.5 -29.5t30.5 -12.5h512q17 0 29.5 12.5t12.5 29.5v150l171 -171v469l-171 -170v0z" />
    <glyph glyph-name="uniE6D2" unicode="&#xe6d2;" 
d="M789 427q0 56 -29.5 102t-76.5 70v-344q47 24 76.5 69.5t29.5 102.5v0zM213 555v-256h171l213 -214v683l-213 -213h-171v0z" />
    <glyph glyph-name="uniE6D3" unicode="&#xe6d3;" 
d="M299 555v-256h170l214 -214v683l-214 -213h-170v0z" />
    <glyph glyph-name="uniE6D4" unicode="&#xe6d4;" 
d="M704 427q0 56 -29.5 102t-77.5 70v-95l105 -104q1 6 1.5 13t0.5 14v0zM811 427q0 -30 -6 -58.5t-17 -54.5l64 -64q21 39 32.5 84t11.5 93q0 68 -22.5 129.5t-62.5 111t-95 84t-119 49.5v-88q47 -14 86 -41.5t67.5 -65t44.5 -83.5t16 -96v0zM182 811l-54 -55l202 -201
h-202v-256h171l213 -214v287l181 -181q-21 -16 -45 -29t-51 -21v-88q44 10 84 30t74 47l87 -87l54 54l-714 714v0zM512 768l-89 -89l89 -89v178v0z" />
    <glyph glyph-name="uniE6D5" unicode="&#xe6d5;" 
d="M128 555v-256h171l213 -214v683l-213 -213h-171v0zM704 427q0 56 -29.5 102t-77.5 70v-344q48 24 77.5 69.5t29.5 102.5v0zM597 801v-88q47 -14 86 -41.5t67.5 -65t44.5 -83.5t16 -96q0 -51 -16 -97t-44.5 -83.5t-67.5 -65t-86 -41.5v-88q64 15 119 49.5t95 84t62.5 111
t22.5 130.5q0 68 -22.5 129.5t-62.5 111t-95 84t-119 49.5v0z" />
    <glyph glyph-name="uniE6D6" unicode="&#xe6d6;" 
d="M853 768h-682q-36 0 -60.5 -25t-24.5 -60l-1 -512q0 -36 25 -61t61 -25h682q36 0 61 25t25 61v512q0 35 -25 60t-61 25v0zM640 171h-469v170h469v-170v0zM640 384h-469v171h469v-171v0zM853 171h-170v384h170v-384v0z" />
    <glyph glyph-name="uniE6D7" unicode="&#xe6d7;" 
d="M512 640v171h-427v-768h854v597h-427v0zM256 128h-85v85h85v-85v0zM256 299h-85v85h85v-85v0zM256 469h-85v86h85v-86v0zM256 640h-85v85h85v-85v0zM427 128h-86v85h86v-85v0zM427 299h-86v85h86v-85v0zM427 469h-86v86h86v-86v0zM427 640h-86v85h86v-85v0zM853 128h-341
v85h85v86h-85v85h85v85h-85v86h341v-427v0zM768 469h-85v-85h85v85v0zM768 299h-85v-86h85v86v0z" />
    <glyph glyph-name="uniE6D8" unicode="&#xe6d8;" 
d="M512 555q-51 0 -100.5 -8t-95.5 -23v-132q0 -13 -7 -23.5t-17 -15.5q-32 -15 -60 -35t-54 -44q-5 -5 -13 -8.5t-17 -3.5q-8 0 -16 3.5t-14 9.5l-106 106q-5 5 -8.5 12.5t-3.5 16.5t3.5 17t8.5 14q49 46 106 83t120.5 62.5t132 39.5t141.5 14t141.5 -14t132 -39.5
t120.5 -62.5t106 -83q5 -6 8.5 -14t3.5 -17t-3.5 -16.5t-8.5 -13.5l-106 -106q-6 -5 -14 -8.5t-16 -3.5q-9 0 -17 3t-13 9q-26 24 -54.5 43.5t-59.5 35.5q-11 5 -17.5 15t-6.5 23v133q-46 15 -95.5 23t-100.5 8v0z" />
    <glyph glyph-name="uniE6D9" unicode="&#xe6d9;" 
d="M384 725v-85h281l-494 -495l60 -60l494 495v-281h86v426h-427z" />
    <glyph glyph-name="uniE6DA" unicode="&#xe6da;" 
d="M725 68l60 60l-145 145l-60 -60l145 -145v0zM320 597h149v-238l-230 -231l60 -60l256 256v273h149l-192 192l-192 -192v0z" />
    <glyph glyph-name="uniE6DB" unicode="&#xe6db;" 
d="M836 640l-324 -324l-239 239h196v85h-341v-341h85v196l299 -299l384 384z" />
    <glyph glyph-name="uniE6DC" unicode="&#xe6dc;" 
d="M853 708l-60 60l-494 -495v282h-86v-427h427v85h-281z" />
    <glyph glyph-name="uniE6DD" unicode="&#xe6dd;" 
d="M597 768l98 -98l-123 -123l61 -60l123 123l97 -98v256h-256zM427 768h-256v-256l97 98l201 -201v-324h86v359l-226 226z" />
    <glyph glyph-name="uniE6DE" unicode="&#xe6de;" 
d="M282 478q23 -45 53 -86t65.5 -76.5t76.5 -65.5t87 -53l93 94q9 9 21 11.5t23 -1.5q36 -12 74.5 -18t77.5 -6q18 0 30.5 -12.5t12.5 -30.5v-149q0 -17 -12.5 -29.5t-30.5 -12.5q-150 0 -282 57t-230.5 155.5t-155.5 230.5t-57 282q0 18 12.5 30.5t30.5 12.5h149
q18 0 30.5 -12.5t12.5 -30.5q0 -40 6 -78t18 -74q4 -12 1 -23.5t-12 -20.5l-94 -94v0z" />
    <glyph glyph-name="uniE6DF" unicode="&#xe6df;" 
d="M853 853h-682q-36 0 -60.5 -25t-24.5 -60l-1 -768l171 171h597q36 0 61 25t25 60v512q0 35 -25 60t-61 25v0zM256 555h512v-86h-512v86v0zM597 341h-341v86h341v-86v0zM768 597h-512v86h512v-86v0z" />
    <glyph glyph-name="uniE6E0" unicode="&#xe6e0;" 
d="M213 384h598v85h-598v-85v0zM128 213h597v86h-597v-86v0zM299 640v-85h597v85h-597v0z" />
    <glyph glyph-name="uniE6E1" unicode="&#xe6e1;" 
d="M938 768q0 35 -24.5 60t-60.5 25h-682q-36 0 -61 -25t-25 -60v-512q0 -35 25 -60t61 -25h597l171 -171l-1 768v0zM768 341h-512v86h512v-86v0zM768 469h-512v86h512v-86v0zM768 597h-512v86h512v-86v0z" />
    <glyph glyph-name="uniE6E2" unicode="&#xe6e2;" 
d="M853 939h-682v-86h682v86v0zM171 -85h682v85h-682v-85v0zM853 768h-682q-36 0 -61 -25t-25 -60v-512q0 -36 25 -61t61 -25h682q36 0 61 25t25 61v512q0 35 -25 60t-61 25v0zM512 651q40 0 68 -28.5t28 -67.5q0 -40 -28 -68t-68 -28t-68 28t-28 68q0 39 28 67.5t68 28.5v0
zM725 213h-426v64q0 27 23 47t56.5 33.5t70 20t63.5 6.5t63.5 -6.5t70 -20t56.5 -33.5t23 -47v-64v0z" />
    <glyph glyph-name="uniE6E3" unicode="&#xe6e3;" 
d="M725 811h-42v-214h42v214v0zM640 725h-85v43h85v43h-128v-128h85v-43h-85v-43h128v128v0zM768 811v-214h43v86h85v128h-128v0zM853 725h-42v43h42v-43v0zM853 277q-40 0 -78 6.5t-74 18.5q-11 3 -22.5 0.5t-20.5 -11.5l-94 -93q-45 23 -86 52.5t-76.5 65t-65.5 76.5
t-53 87l94 94q8 8 11 19.5t-1 23.5q-12 36 -18 74t-6 78q0 18 -12.5 30.5t-30.5 12.5h-149q-18 0 -30.5 -12.5t-12.5 -30.5q0 -150 57 -282t155.5 -230.5t230.5 -155.5t282 -57q18 0 30.5 12.5t12.5 29.5v150q0 17 -12.5 29.5t-30.5 12.5v0z" />
    <glyph glyph-name="uniE6E4" unicode="&#xe6e4;" 
d="M512 128q-35 0 -60 -25t-25 -60q0 -36 25 -61t60 -25t60 25t25 61q0 35 -25 60t-60 25v0zM256 896q-35 0 -60 -25t-25 -60q0 -36 25 -61t60 -25t60 25t25 61q0 35 -25 60t-60 25v0zM256 640q-35 0 -60 -25t-25 -60q0 -36 25 -61t60 -25t60 25t25 61q0 35 -25 60t-60 25v0
zM256 384q-35 0 -60 -25t-25 -60q0 -36 25 -61t60 -25t60 25t25 61q0 35 -25 60t-60 25v0zM768 725q35 0 60 25t25 61q0 35 -25 60t-60 25t-60 -25t-25 -60q0 -36 25 -61t60 -25v0zM512 384q-35 0 -60 -25t-25 -60q0 -36 25 -61t60 -25t60 25t25 61q0 35 -25 60t-60 25v0z
M768 384q-35 0 -60 -25t-25 -60q0 -36 25 -61t60 -25t60 25t25 61q0 35 -25 60t-60 25v0zM768 640q-35 0 -60 -25t-25 -60q0 -36 25 -61t60 -25t60 25t25 61q0 35 -25 60t-60 25v0zM512 640q-35 0 -60 -25t-25 -60q0 -36 25 -61t60 -25t60 25t25 61q0 35 -25 60t-60 25v0z
M512 896q-35 0 -60 -25t-25 -60q0 -36 25 -61t60 -25t60 25t25 61q0 35 -25 60t-60 25v0z" />
    <glyph glyph-name="uniE6E5" unicode="&#xe6e5;" 
d="M512 853q-88 0 -166 -33.5t-136 -91.5t-91.5 -135.5t-33.5 -165.5q0 -89 33.5 -166.5t91.5 -135.5t136 -91.5t166 -33.5t166 33.5t136 91.5t91.5 135.5t33.5 166.5q0 88 -33.5 165.5t-91.5 135.5t-136 91.5t-166 33.5v0zM512 85q-71 0 -133 27t-108.5 73.5t-73 108.5
t-26.5 133q0 59 19 112.5t53 96.5l478 -479q-43 -33 -96.5 -52.5t-112.5 -19.5v0zM781 218l-478 478q43 34 96.5 53t112.5 19q71 0 133 -27t108.5 -73t73 -108.5t26.5 -132.5q0 -60 -19 -113t-53 -96v0z" />
    <glyph glyph-name="uniE6E6" unicode="&#xe6e6;" 
d="M853 768h-682q-36 0 -60.5 -25t-24.5 -60l-1 -512q0 -36 25 -61t61 -25h682q36 0 61 25t25 61v512q0 35 -25 60t-61 25v0zM853 597l-341 -213l-341 213v86l341 -214l341 214v-86v0z" />
    <glyph glyph-name="uniE6E7" unicode="&#xe6e7;" 
d="M896 683h-85v-384h-555v-86q0 -17 12.5 -29.5t30.5 -12.5h469l171 -171v640q0 18 -12.5 30.5t-30.5 12.5v0zM725 427v384q0 17 -12.5 29.5t-29.5 12.5h-555q-18 0 -30.5 -12.5t-12.5 -29.5v-598l171 171h427q17 0 29.5 12.5t12.5 30.5v0z" />
    <glyph glyph-name="uniE6E8" unicode="&#xe6e8;" 
d="M384 811l-171 -171h128v-299h86v299h128l-171 171v0zM683 213v299h-86v-299h-128l171 -170l171 170h-128v0z" />
    <glyph glyph-name="uniE6E9" unicode="&#xe6e9;" 
d="M881 48l-100 100l-269 269l-152 152l-60 60l-118 118l-54 -55l119 -118q-41 -50 -60 -110t-16 -121.5t28 -119.5t72 -105q49 -50 112 -75t129 -25q57 0 112.5 19t102.5 57l115 -115l54 54l-15 15v0zM512 103q-51 0 -98 19t-83 56q-36 36 -55.5 83t-19.5 98q0 42 13.5 81
t38.5 72l204 -204v-205v0zM512 721v-195l309 -310q22 47 29 98.5t-1.5 102t-32.5 97.5t-63 86l-241 242l-158 -158l60 -60l98 97v0z" />
    <glyph glyph-name="uniE6EA" unicode="&#xe6ea;" 
d="M753 600l-241 242l-241 -242q-50 -50 -75 -112.5t-25 -128t25 -128.5t75 -113q49 -50 112 -75t129 -25t129 25t112 75q50 50 75 113t25 128.5t-25 128t-75 112.5v0zM512 103q-51 0 -98 19t-83 56q-36 36 -55.5 83t-19.5 98t19.5 98t55.5 83l181 181v-618v0z" />
    <glyph glyph-name="uniE6EB" unicode="&#xe6eb;" 
d="M811 853h-598q-35 0 -60 -25t-25 -60v-597q0 -36 25 -61t60 -25h171l128 -128l128 128h171q35 0 60 25t25 61v597q0 35 -25 60t-60 25v0zM555 171h-86v85h86v-85v0zM643 501l-38 -39q-23 -23 -36.5 -48t-13.5 -73h-86v22q0 35 13.5 66t36.5 54l53 54q12 12 18.5 27.5
t6.5 32.5q0 36 -25 61t-60 25t-60 -25t-25 -61h-86q0 71 50 121t121 50t121 -50t50 -121q0 -28 -11 -52.5t-29 -43.5v0z" />
    <glyph glyph-name="uniE6EC" unicode="&#xe6ec;" 
d="M512 661q44 0 75.5 -31t31.5 -75q0 -24 -10 -44.5t-26 -34.5l155 -155q31 59 52 119.5t21 114.5q0 62 -23.5 116t-64 94.5t-95 64t-116.5 23.5q-63 0 -118.5 -24.5t-96.5 -66.5l136 -137q15 17 35 26.5t44 9.5v0zM698 252l-558 559l-55 -55l136 -135q-4 -16 -6 -32.5
t-2 -33.5q0 -84 47 -181.5t103 -180.5t102.5 -138l46.5 -55l44.5 53t99.5 133l143 -143l54 54l-155 155v0z" />
    <glyph glyph-name="uniE6ED" unicode="&#xe6ed;" 
d="M512 853q-62 0 -116.5 -23.5t-95 -64t-64 -94.5t-23.5 -116q0 -84 47 -181.5t103 -180.5t102.5 -138l46.5 -55l46.5 55t102.5 138t103 180.5t47 181.5q0 62 -23.5 116t-64 94.5t-95 64t-116.5 23.5v0zM512 448q-44 0 -75.5 31.5t-31.5 75.5t31.5 75t75.5 31t75.5 -31
t31.5 -75t-31.5 -75.5t-75.5 -31.5v0z" />
    <glyph glyph-name="uniE6EE" unicode="&#xe6ee;" 
d="M853 853h-682q-36 0 -60.5 -25t-24.5 -60l-1 -768l171 171h597q36 0 61 25t25 60v512q0 35 -25 60t-61 25v0zM768 341h-512v86h512v-86v0zM768 469h-512v86h512v-86v0zM768 597h-512v86h512v-86v0z" />
    <glyph glyph-name="uniE6EF" unicode="&#xe6ef;" 
d="M853 853h-682q-36 0 -61 -25t-25 -60v-768l171 171h597q36 0 61 25t25 60v512q0 35 -25 60t-61 25v0z" />
    <glyph glyph-name="uniE6F0" unicode="&#xe6f0;" 
d="M810 725q0 36 -24.5 61t-60.5 25h-298l-100 -100l484 -484l-1 498v0zM156 773l-54 -54l111 -112v-479q0 -35 25 -60t61 -25h427q11 0 21 3t20 8l80 -80l54 54l-745 745v0z" />
    <glyph glyph-name="uniE6F1" unicode="&#xe6f1;" 
d="M282 478q23 -45 53 -86t65.5 -76.5t76.5 -65.5t87 -53l93 94q9 9 21 11.5t23 -1.5q36 -12 74.5 -18t77.5 -6q18 0 30.5 -12.5t12.5 -30.5v-149q0 -17 -12.5 -29.5t-30.5 -12.5q-150 0 -282 57t-230.5 155.5t-155.5 230.5t-57 282q0 18 12.5 30.5t30.5 12.5h149
q18 0 30.5 -12.5t12.5 -30.5q0 -40 6 -78t18 -74q4 -12 1 -23.5t-12 -20.5l-94 -94v0z" />
    <glyph glyph-name="uniE6F2" unicode="&#xe6f2;" 
d="M749 331q9 22 14 46t5 50q0 53 -20 99.5t-55 81t-81.5 55t-99.5 20.5q-25 0 -49 -5t-47 -14l70 -69q6 1 12.5 1.5t13.5 0.5q71 0 121 -50t50 -120q0 -7 -1 -13.5t-1 -13.5l68 -69v0zM512 768q71 0 133 -27t108.5 -73t73 -108.5t26.5 -132.5q0 -44 -10.5 -84t-29.5 -76
l63 -63q30 49 46.5 105.5t16.5 117.5q0 88 -33.5 165.5t-91.5 135.5t-136 91.5t-166 33.5q-61 0 -117.5 -16.5t-104.5 -45.5l62 -63q36 19 76.5 29.5t83.5 10.5v0zM140 832l-55 -54l90 -90q-42 -54 -66 -120.5t-24 -140.5q0 -60 15.5 -114.5t43.5 -102t67.5 -86.5t86.5 -66
l43 73q-38 23 -69.5 54t-54 69t-34.5 81.5t-12 91.5q0 56 17 107t48 93l61 -62q-19 -29 -30 -64.5t-11 -73.5q0 -71 35.5 -129.5t92.5 -92.5l43 74q-38 23 -62 61.5t-24 86.5q0 20 5 39.5t14 36.5l68 -67l-1 -9q0 -36 25 -61t60 -25l9 1l321 -321l54 55l-756 756v0z" />
    <glyph glyph-name="uniE6F3" unicode="&#xe6f3;" 
d="M939 811h-854q-35 0 -60 -25t-25 -61v-597q0 -35 25 -60t60 -25h854q35 0 60 25t25 60v597q0 36 -25 61t-60 25v0zM341 683q53 0 90.5 -37.5t37.5 -90.5t-37.5 -90.5t-90.5 -37.5t-90.5 37.5t-37.5 90.5t37.5 90.5t90.5 37.5v0zM597 171h-512v42q0 32 28 57t68 41.5
t84 25.5t76 9t76 -9t84 -25.5t68 -41.5t28 -57v-42v0zM762 341h70l64 -85l-85 -85q-42 31 -72 75t-44 95q-6 21 -9 42.5t-3 43.5t3 43.5t9 41.5q14 52 44 95.5t72 74.5l85 -85l-64 -85h-70q-7 -20 -11 -41.5t-4 -43.5q0 -23 4 -44.5t11 -41.5v0z" />
    <glyph glyph-name="uniE6F4" unicode="&#xe6f4;" 
d="M896 597v43l-128 -85l-128 85v-43l128 -85l128 85v0zM939 811h-854q-35 0 -60 -25t-25 -61v-597q0 -35 25 -60t60 -25h854q35 0 60 25t25 60v597q0 36 -25 61t-60 25v0zM341 683q53 0 90.5 -37.5t37.5 -90.5t-37.5 -90.5t-90.5 -37.5t-90.5 37.5t-37.5 90.5t37.5 90.5
t90.5 37.5v0zM597 171h-512v42q0 32 28 57t68 41.5t84 25.5t76 9t76 -9t84 -25.5t68 -41.5t28 -57v-42v0zM939 427h-342v256h342v-256v0z" />
    <glyph glyph-name="uniE6F5" unicode="&#xe6f5;" 
d="M1012 227q-49 47 -106 83.5t-120.5 62.5t-132 40t-141.5 14t-141.5 -14t-132 -40t-120.5 -62.5t-106 -83.5q-5 -5 -8.5 -13t-3.5 -17t3.5 -16.5t8.5 -13.5l106 -106q6 -6 14 -9t16 -3q9 0 17 3t13 9q26 23 54.5 43t59.5 36q10 5 17 15t7 23v132q46 16 95.5 23.5
t100.5 7.5t100.5 -7.5t95.5 -22.5v-133q0 -12 7 -22.5t17 -15.5q32 -16 60 -36t54 -43q5 -6 13 -9t17 -3q8 0 16 3.5t14 8.5l106 106q5 6 8.5 14t3.5 17q0 8 -3.5 16t-8.5 13v0zM903 672l-60 60l-152 -152l60 -60l23 23.5t51 52t52 52t26 24.5v0zM555 853h-86v-213h86v213v0
zM273 520l60 60l-151 152l-61 -60q2 -1 26 -24.5t52 -52t51 -52l23 -23.5v0z" />
    <glyph glyph-name="uniE6F6" unicode="&#xe6f6;" 
d="M43 640v-427q0 -35 25 -60t60 -25h768q35 0 60 25t25 60v427q0 35 -25 60t-60 25h-768q-35 0 -60 -25t-25 -60v0zM811 640v-427h-598v427h598v0z" />
    <glyph glyph-name="uniE6F7" unicode="&#xe6f7;" 
d="M725 896h-426q-36 0 -60.5 -25t-24.5 -60v-768q0 -36 24.5 -61t60.5 -25h426q36 0 61 25t25 61v768q0 35 -25 60t-61 25v0zM725 128h-426v597h426v-597v0z" />
    <glyph glyph-name="uniE6F8" unicode="&#xe6f8;" 
d="M43 640v-427q0 -35 25 -60t60 -25h768q35 0 60 25t25 60v427q0 35 -25 60t-60 25h-768q-35 0 -60 -25t-25 -60v0zM811 640v-427h-598v427h598v0z" />
    <glyph glyph-name="uniE6F9" unicode="&#xe6f9;" 
d="M725 896h-426q-36 0 -60.5 -25t-24.5 -60v-768q0 -36 24.5 -61t60.5 -25h426q36 0 61 25t25 61v768q0 35 -25 60t-61 25v0zM725 128h-426v597h426v-597v0z" />
    <glyph glyph-name="uniE6FA" unicode="&#xe6fa;" 
d="M768 768l-171 -171h128v-298q0 -36 -25 -61t-60 -25t-60 25t-25 61v298q0 71 -50 121t-121 50t-121 -50t-50 -121v-298h-128l171 -171l171 171h-128v298q0 36 25 61t60 25t60 -25t25 -61v-298q0 -71 50 -121t121 -50t121 50t50 121v298h128l-171 171v0z" />
    <glyph glyph-name="uniE6FB" unicode="&#xe6fb;" 
d="M853 853h-682q-36 0 -60.5 -25t-24.5 -60l-1 -768l171 171h597q36 0 61 25t25 60v512q0 35 -25 60t-61 25v0zM384 469h-85v86h85v-86v0zM555 469h-86v86h86v-86v0zM725 469h-85v86h85v-86v0z" />
    <glyph glyph-name="uniE6FC" unicode="&#xe6fc;" 
d="M789 683q-48 0 -91 -18.5t-74.5 -50.5t-50 -74.5t-18.5 -91.5q0 -43 14 -81t39 -68h-192q25 30 39 68t14 81q0 49 -18.5 91.5t-50 74.5t-74.5 50.5t-91 18.5q-49 0 -91.5 -18.5t-74.5 -50.5t-50.5 -74.5t-18.5 -91.5t18.5 -91.5t50.5 -74.5t74.5 -50.5t91.5 -18.5h554
q49 0 91.5 18.5t74.5 50.5t50.5 74.5t18.5 91.5t-18.5 91.5t-50.5 74.5t-74.5 50.5t-91.5 18.5v0zM235 299q-62 0 -106 43.5t-44 105.5t44 105.5t106 43.5q61 0 105 -43.5t44 -105.5t-44 -105.5t-105 -43.5v0zM789 299q-61 0 -105 43.5t-44 105.5t44 105.5t105 43.5
q62 0 106 -43.5t44 -105.5t-44 -105.5t-106 -43.5v0z" />
    <glyph glyph-name="uniE6FD" unicode="&#xe6fd;" 
d="M540 512q-13 37 -37 68.5t-55.5 54t-69.5 35.5t-79 13q-53 0 -100 -20.5t-81.5 -55t-54.5 -81t-20 -99.5t20 -100t54.5 -81.5t81.5 -54.5t100 -20q41 0 79 12.5t69.5 35t55.5 54t37 68.5h185v-170h171v170h85v171h-441v0zM299 341q-36 0 -61 25t-25 61q0 35 25 60t61 25
q35 0 60 -25t25 -60q0 -36 -25 -61t-60 -25v0z" />
    <glyph glyph-name="uniE6FE" unicode="&#xe6fe;" 
d="M811 811h-598q-35 0 -60 -25t-25 -61v-597q0 -35 25 -60t60 -25h598q35 0 60 25t25 60v597q0 36 -25 61t-60 25v0zM725 384h-170v-171h-86v171h-170v85h170v171h86v-171h170v-85v0z" />
    <glyph glyph-name="uniE6FF" unicode="&#xe6ff;" 
d="M555 640h-86v-171h-170v-85h170v-171h86v171h170v85h-170v171v0zM512 853q-88 0 -166 -33.5t-136 -91.5t-91.5 -135.5t-33.5 -165.5q0 -89 33.5 -166.5t91.5 -135.5t136 -91.5t166 -33.5t166 33.5t136 91.5t91.5 135.5t33.5 166.5q0 88 -33.5 165.5t-91.5 135.5
t-136 91.5t-166 33.5v0zM512 85q-71 0 -133 27t-108.5 73.5t-73 108.5t-26.5 133q0 70 26.5 132.5t73 108.5t108.5 73t133 27t133 -27t108.5 -73t73 -108.5t26.5 -132.5q0 -71 -26.5 -133t-73 -108.5t-108.5 -73.5t-133 -27v0z" />
    <glyph glyph-name="uniE700" unicode="&#xe700;" 
d="M512 853q-88 0 -166 -33.5t-136 -91.5t-91.5 -135.5t-33.5 -165.5q0 -89 33.5 -166.5t91.5 -135.5t136 -91.5t166 -33.5t166 33.5t136 91.5t91.5 135.5t33.5 166.5q0 88 -33.5 165.5t-91.5 135.5t-136 91.5t-166 33.5v0zM725 384h-170v-171h-86v171h-170v85h170v171h86
v-171h170v-85v0z" />
    <glyph glyph-name="uniE701" unicode="&#xe701;" 
d="M811 384h-256v-256h-86v256h-256v85h256v256h86v-256h256v-85v0z" />
    <glyph glyph-name="uniE702" unicode="&#xe702;" 
d="M876 716l-59 71q-9 11 -21.5 17.5t-27.5 6.5h-512q-15 0 -28 -6.5t-21 -17.5l-59 -71q-10 -11 -15 -25t-5 -30v-533q0 -35 25 -60t60 -25h598q35 0 60 25t25 60v533q0 16 -5 30t-15 25v0zM512 192l-235 235h150v85h170v-85h150l-235 -235v0zM218 725l35 43h512l40 -43
h-587v0z" />
    <glyph glyph-name="uniE703" unicode="&#xe703;" 
d="M939 811h-640q-22 0 -39.5 -10.5t-28.5 -27.5l-231 -346l231 -346q11 -17 28.5 -27.5t39.5 -10.5h640q35 0 60 25t25 60v597q0 36 -25 61t-60 25v0zM811 273l-60 -60l-154 154l-153 -154l-60 60l153 154l-153 153l60 60l153 -153l154 153l60 -60l-154 -153l154 -154v0z
" />
    <glyph glyph-name="uniE704" unicode="&#xe704;" 
d="M512 853q-88 0 -166 -33.5t-136 -91.5t-91.5 -135.5t-33.5 -165.5q0 -89 33.5 -166.5t91.5 -135.5t136 -91.5t166 -33.5t166 33.5t136 91.5t91.5 135.5t33.5 166.5q0 88 -33.5 165.5t-91.5 135.5t-136 91.5t-166 33.5v0zM171 427q0 70 26.5 132.5t73 108.5t108.5 73
t133 27q59 0 112.5 -19t96.5 -53l-478 -478q-34 43 -53 96t-19 113v0zM512 85q-59 0 -112.5 19.5t-96.5 52.5l478 479q34 -43 53 -96.5t19 -112.5q0 -71 -26.5 -133t-73 -108.5t-108.5 -73.5t-133 -27v0z" />
    <glyph glyph-name="uniE705" unicode="&#xe705;" 
d="M811 665l-60 60l-239 -238l-239 238l-60 -60l239 -238l-239 -239l60 -60l239 239l239 -239l60 60l-239 239z" />
    <glyph glyph-name="uniE706" unicode="&#xe706;" 
d="M683 896h-512q-36 0 -61 -25t-25 -60v-598h86v598h512v85v0zM811 725h-470q-35 0 -60 -25t-25 -60v-597q0 -36 25 -61t60 -25h470q35 0 60 25t25 61v597q0 35 -25 60t-60 25v0zM811 43h-470v597h470v-597v0z" />
    <glyph glyph-name="uniE707" unicode="&#xe707;" 
d="M411 613q8 16 12 33.5t4 36.5q0 70 -50 120t-121 50t-121 -50t-50 -120q0 -71 50 -121t121 -50q19 0 36.5 4t33.5 11l101 -100l-101 -101q-16 7 -33.5 11t-36.5 4q-71 0 -121 -50t-50 -120q0 -71 50 -121t121 -50t121 50t50 121q0 19 -4 36.5t-12 33.5l101 100l299 -298
h128v42l-528 528v0zM256 597q-35 0 -60 25t-25 61q0 35 25 60t60 25t60 -25t25 -60q0 -36 -25 -61t-60 -25v0zM256 85q-35 0 -60 25t-25 61q0 35 25 60t60 25t60 -25t25 -60q0 -36 -25 -61t-60 -25v0zM512 405q-9 0 -15 6.5t-6 15.5t6 15t15 6t15 -6t6 -15t-6 -15.5
t-15 -6.5v0zM811 811l-256 -256l85 -86l299 299v43h-128z" />
    <glyph glyph-name="uniE708" unicode="&#xe708;" 
d="M811 853h-179q-13 37 -45.5 61.5t-74.5 24.5t-74.5 -24.5t-45.5 -61.5h-179q-35 0 -60 -25t-25 -60v-683q0 -35 25 -60t60 -25h598q35 0 60 25t25 60v683q0 35 -25 60t-60 25v0zM512 853q18 0 30.5 -12.5t12.5 -29.5q0 -18 -12.5 -30.5t-30.5 -12.5t-30.5 12.5
t-12.5 30.5q0 17 12.5 29.5t30.5 12.5v0zM811 85h-598v683h86v-128h426v128h86v-683v0z" />
    <glyph glyph-name="uniE709" unicode="&#xe709;" 
d="M128 203v-160h160l472 472l-160 160l-472 -472v0zM884 638q12 13 12 30.5t-12 29.5l-100 100q-13 13 -30.5 13t-29.5 -13l-78 -78l160 -160l78 78v0z" />
    <glyph glyph-name="uniE70A" unicode="&#xe70a;" 
d="M938 597q0 23 -11 42.5t-29 30.5l-386 226l-386 -226q-18 -11 -29.5 -30.5t-11.5 -42.5v-426q0 -36 25 -61t61 -25h682q36 0 61 25t25 61l-1 426v0zM512 384l-352 220l352 207l352 -207l-352 -220v0z" />
    <glyph glyph-name="uniE70B" unicode="&#xe70b;" 
d="M427 171h170v85h-170v-85v0zM128 683v-86h768v86h-768v0zM256 384h512v85h-512v-85v0z" />
    <glyph glyph-name="uniE70C" unicode="&#xe70c;" 
d="M614 683l-17 85h-384v-725h86v298h239l17 -85h298v427h-239z" />
    <glyph glyph-name="uniE70D" unicode="&#xe70d;" 
d="M512 597v171l341 -341l-341 -342v171h-341v341h341z" />
    <glyph glyph-name="uniE70E" unicode="&#xe70e;" 
d="M196 645q22 22 42.5 39t30.5 13q16 -7 6.5 -28t-19.5 -37q-4 -7 -23.5 -35.5t-41.5 -67.5t-39.5 -83.5t-17.5 -82.5q0 -41 15 -74t42 -53q24 -18 54 -23.5t59 3.5q34 10 64.5 42t65.5 76q39 48 86.5 97.5t87.5 49.5q53 0 62.5 -26t13.5 -51q-61 -10 -104.5 -37
t-71.5 -60.5t-41 -68.5t-13 -63q0 -54 40 -92.5t97 -38.5q26 0 58 12t61.5 41.5t52 79.5t28.5 127h105v106h-105q-5 53 -41.5 116.5t-130.5 63.5q-72 0 -129.5 -46t-81.5 -76q-19 -23 -54.5 -65.5t-43.5 -50.5q-8 -9 -20.5 -22t-26.5 -13q-15 0 -21 23.5t5 58.5
q12 34 38.5 81.5t40.5 68.5q25 36 40.5 66t15.5 74q0 69 -39.5 95.5t-67.5 26.5q-42 0 -75 -23t-41 -31q-12 -11 -21.5 -21t-16.5 -18l75 -73v0zM592 147q-10 0 -20.5 8t-10.5 23q0 19 27 59.5t95 58.5q-10 -86 -39 -117.5t-52 -31.5v0z" />
    <glyph glyph-name="uniE70F" unicode="&#xe70f;" 
d="M811 811h-598q-35 0 -60 -25t-25 -61v-597q0 -35 25 -60t60 -25h598q35 0 60 25t25 60v597q0 36 -25 61t-60 25v0zM811 299h-171q0 -53 -37.5 -90.5t-90.5 -37.5t-90.5 37.5t-37.5 90.5h-171v426h598v-426v0zM683 512h-86v128h-170v-128h-86l171 -171l171 171v0z" />
    <glyph glyph-name="uniE710" unicode="&#xe710;" 
d="M166 427q0 54 39 93t94 39h170v81h-170q-44 0 -83 -17t-68 -45.5t-46 -67.5t-17 -83t17 -83t46 -68t68 -46t83 -17h170v81h-170q-55 0 -94 39t-39 94v0zM341 384h342v85h-342v-85v0zM725 640h-170v-81h170q55 0 94 -39t39 -93q0 -55 -39 -94t-94 -39h-170v-81h170
q44 0 83 17t68 46t46 68t17 83t-17 83t-46 67.5t-68 45.5t-83 17v0z" />
    <glyph glyph-name="uniE711" unicode="&#xe711;" 
d="M853 768h-682q-36 0 -60.5 -25t-24.5 -60l-1 -512q0 -36 25 -61t61 -25h682q36 0 61 25t25 61v512q0 35 -25 60t-61 25v0zM853 597l-341 -213l-341 213v86l341 -214l341 214v-86v0z" />
    <glyph glyph-name="uniE712" unicode="&#xe712;" 
d="M853 768h-682q-36 0 -60.5 -25t-24.5 -60l-1 -512q0 -36 25 -61t61 -25h682q36 0 61 25t25 61v512q0 35 -25 60t-61 25v0zM853 597l-341 -213l-341 213v86l341 -214l341 214v-86v0z" />
    <glyph glyph-name="uniE713" unicode="&#xe713;" 
d="M785 486q-30 26 -63.5 46.5t-71 35t-77.5 22t-82 7.5q-75 0 -142.5 -23t-123 -64t-96.5 -97.5t-63 -123.5l100 -33q17 51 48.5 94t74 74.5t94 49t108.5 17.5q62 0 118 -21.5t100 -59.5l-154 -154h384v384l-154 -154v0z" />
    <glyph glyph-name="uniE714" unicode="&#xe714;" 
d="M299 469v-85h426v85h-426v0zM512 853q-88 0 -166 -33.5t-136 -91.5t-91.5 -135.5t-33.5 -165.5q0 -89 33.5 -166.5t91.5 -135.5t136 -91.5t166 -33.5t166 33.5t136 91.5t91.5 135.5t33.5 166.5q0 88 -33.5 165.5t-91.5 135.5t-136 91.5t-166 33.5v0zM512 85
q-71 0 -133 27t-108.5 73.5t-73 108.5t-26.5 133q0 70 26.5 132.5t73 108.5t108.5 73t133 27t133 -27t108.5 -73t73 -108.5t26.5 -132.5q0 -71 -26.5 -133t-73 -108.5t-108.5 -73.5t-133 -27v0z" />
    <glyph glyph-name="uniE715" unicode="&#xe715;" 
d="M512 853q-88 0 -166 -33.5t-136 -91.5t-91.5 -135.5t-33.5 -165.5q0 -89 33.5 -166.5t91.5 -135.5t136 -91.5t166 -33.5t166 33.5t136 91.5t91.5 135.5t33.5 166.5q0 88 -33.5 165.5t-91.5 135.5t-136 91.5t-166 33.5v0zM725 384h-426v85h426v-85v0z" />
    <glyph glyph-name="uniE716" unicode="&#xe716;" 
d="M811 384h-598v85h598v-85v0z" />
    <glyph glyph-name="uniE717" unicode="&#xe717;" 
d="M299 597v128l-299 -298l299 -299v128l-171 171l171 170v0zM555 555v170l-299 -298l299 -299v175q80 0 148 -13t126 -40t106.5 -68t88.5 -97q-16 80 -49.5 157.5t-89.5 141.5t-137 109.5t-193 61.5v0z" />
    <glyph glyph-name="uniE718" unicode="&#xe718;" 
d="M427 555v170l-299 -298l299 -299v175q80 0 148 -13t126 -40t106.5 -68t88.5 -97q-16 80 -49.5 157.5t-89.5 141.5t-137 109.5t-193 61.5v0z" />
    <glyph glyph-name="uniE719" unicode="&#xe719;" 
d="M671 811h-318l-225 -225v-318l225 -225h318l225 225v318l-225 225v0zM512 201q-23 0 -39 16t-16 39t16 39t39 16t39 -16t16 -39t-16 -39t-39 -16v0zM555 384h-86v256h86v-256v0z" />
    <glyph glyph-name="uniE71A" unicode="&#xe71a;" 
d="M725 811h-512q-35 0 -60 -25t-25 -61v-597q0 -35 25 -60t60 -25h598q35 0 60 25t25 60v512l-171 171v0zM512 128q-53 0 -90.5 37.5t-37.5 90.5t37.5 90.5t90.5 37.5t90.5 -37.5t37.5 -90.5t-37.5 -90.5t-90.5 -37.5v0zM640 555h-427v170h427v-170v0z" />
    </font>
</defs>
</svg>
